<svg xmlns="http://www.w3.org/2000/svg" width="24" height="24" viewBox="0 0 24 24">
    <g opacity=".6">
        <path d="M1.5 21c-.276 0-.5-.224-.5-.5V.5c0-.276.224-.5.5-.5h21c.276 0 .5.224.5.5v20c0 .276-.224.5-.5.5h-21zM22 20V1H2v19h20z" transform="translate(0 3)"/>
        <path d="M0 20H24V21H0z" transform="translate(0 3)"/>
        <path d="M7.5 21c-.276 0-.5-.224-.5-.5v-10c0-.276.224-.5.5-.5h9c.276 0 .5.224.5.5v10c0 .276-.224.5-.5.5h-9zm8.5-1v-9H8v9h8z" transform="translate(0 3)"/>
        <path d="M11.5 10L12.5 10 12.5 21 11.5 21zM1 3L1 2 23 2 23 3zM1 5L1 4 23 4 23 5zM1 7L1 6 23 6 23 7z" transform="translate(0 3)"/>
    </g>
</svg>
