<?xml version="1.0" encoding="UTF-8"?>
<svg width="24px" height="24px" viewBox="0 0 24 24" version="1.1" xmlns="http://www.w3.org/2000/svg" xmlns:xlink="http://www.w3.org/1999/xlink">
    <title>call-24-white</title>
    <defs>
        <path d="M3.8976,0.6504 L1.6812,2.8668 C0.588,3.9588 0.0192,5.394 0,6.8448 L0,6.8448 L0,6.9852 C0.0144,8.0976 0.3516,9.2136 1.0272,10.1832 L1.0272,10.1832 C4.5144,15.1836 8.8176,19.4868 13.818,22.974 L13.818,22.974 C14.8068,23.6628 15.948,24 17.0832,24 L17.0832,24 C18.558,24 20.0232,23.4288 21.1344,22.3188 L21.1344,22.3188 L23.352,20.1036 C23.7708,19.6848 23.9868,19.14 24,18.5892 L24,18.5892 L24,18.48 C23.9868,17.9304 23.7708,17.3832 23.3508,16.9632 L23.3508,16.9632 L19.1688,12.78 C18.3036,11.916 16.8936,11.916 16.0284,12.7812 L16.0284,12.7812 L14.274,14.538 C14.1012,14.7096 13.818,14.7096 13.6452,14.538 L13.6452,14.538 L9.4644,10.3548 C9.3516,10.242 9.3348,10.11 9.3348,10.0416 L9.3348,10.0416 C9.3348,9.9732 9.3516,9.8412 9.4644,9.7272 L9.4644,9.7272 L11.2188,7.9728 C12.0852,7.1076 12.0852,5.6964 11.2188,4.83 L11.2188,4.83 L7.038,0.6504 C6.6048,0.2172 6.0372,0 5.4672,0 L5.4672,0 C4.8996,0 4.3308,0.2172 3.8976,0.6504 L3.8976,0.6504 Z M14.8332,21.5148 C10.0056,18.1488 5.8524,13.9944 2.4852,9.1656 L2.4852,9.1656 C1.3932,7.5972 1.5828,5.4768 2.9364,4.122 L2.9364,4.122 L5.154,1.9056 C5.2392,1.8192 5.3544,1.776 5.4672,1.776 L5.4672,1.776 C5.5824,1.776 5.6952,1.8192 5.7816,1.9056 L5.7816,1.9056 L9.9612,6.0876 C10.0752,6.2004 10.0908,6.3324 10.0908,6.4008 L10.0908,6.4008 C10.0908,6.4692 10.0752,6.6012 9.9612,6.7152 L9.9612,6.7152 L8.2068,8.4696 C7.7868,8.8908 7.5564,9.4476 7.5564,10.0404 L7.5564,10.0404 C7.5564,10.6332 7.7868,11.1912 8.2068,11.6124 L8.2068,11.6124 L12.3876,15.7932 C13.254,16.6572 14.6628,16.6596 15.5292,15.7932 L15.5292,15.7932 L17.2836,14.0364 C17.4576,13.866 17.7384,13.866 17.9112,14.0364 L17.9112,14.0364 L22.0932,18.2184 C22.266,18.39 22.266,18.6732 22.0932,18.846 L22.0932,18.846 L19.8744,21.0612 C19.1112,21.828 18.0996,22.2216 17.0832,22.2216 L17.0832,22.2216 C16.2996,22.2216 15.5148,21.9888 14.8332,21.5148 L14.8332,21.5148 Z" id="path-1"></path>
    </defs>
    <g id="Page-1" stroke="none" stroke-width="1" fill="none" fill-rule="evenodd">
        <g id="Assets" transform="translate(-124.000000, -407.000000)">
            <g id="icon/24x24/call" transform="translate(124.000000, 407.000000)">
                <g>
                    <mask id="mask-2" fill="white">
                        <use xlink:href="#path-1"></use>
                    </mask>
                    <g id="Clip-2"></g>
                    <g id="color/black-#00000" mask="url(#mask-2)" fill="#FFFFFF">
                        <g transform="translate(-2.400000, -2.400000)" id="Rectangle">
                            <rect x="0" y="0" width="28.8" height="28.8"></rect>
                        </g>
                    </g>
                </g>
            </g>
        </g>
    </g>
</svg>