<svg xmlns="http://www.w3.org/2000/svg" width="32" height="32" viewBox="0 0 32 32">
    <g fill="none">
        <path fill="#000" d="M0 0H32V32H0z"/>
        <path fill="#FFF" d="M25.247 9.635c-2.384 0-4.323-1.938-4.323-4.321 0-.368-.298-.665-.665-.665h-3.563c-.368 0-.666.297-.666.665v14.604c0 1.401-1.14 2.54-2.541 2.54s-2.541-1.139-2.541-2.54c0-1.4 1.14-2.54 2.541-2.54.368 0 .665-.298.665-.666V13.15c0-.367-.297-.665-.665-.665-4.1 0-7.435 3.335-7.435 7.433 0 4.099 3.335 7.433 7.435 7.433s7.435-3.334 7.435-7.433v-6.464c1.324.705 2.798 1.074 4.323 1.074.368 0 .665-.298.665-.665V10.3c0-.368-.297-.666-.665-.666z"/>
    </g>
</svg>
