<svg xmlns="http://www.w3.org/2000/svg" width="32" height="32" viewBox="0 0 32 32">
    <g fill="none" fill-rule="evenodd">
        <path fill="#FFF" d="M23.76 3.883s-.234-1.763-.954-2.54C21.894.323 20.871.319 20.402.259 17.043 0 12.005 0 12.005 0h-.01S6.957 0 3.598.259c-.469.06-1.491.065-2.404 1.084-.72.777-.954 2.54-.954 2.54S0 5.954 0 8.025v1.942c0 2.07.24 4.142.24 4.142s.234 1.763.954 2.54c.913 1.02 2.112.987 2.646 1.094C5.76 17.939 12 18 12 18s5.043-.008 8.402-.267c.469-.06 1.492-.065 2.404-1.084.72-.777.954-2.54.954-2.54s.24-2.071.24-4.142V8.025c0-2.07-.24-4.142-.24-4.142z" transform="translate(4 7)"/>
        <path fill="#000" d="M9.828 12c-.144 0-.288-.04-.416-.117-.255-.158-.412-.446-.412-.758v-5.25c0-.312.157-.6.412-.757.257-.156.57-.158.826-.003l4.345 2.625c.258.156.417.447.417.76 0 .314-.159.604-.417.76l-4.345 2.625c-.127.076-.269.115-.41.115z" transform="translate(4 7)"/>
    </g>
</svg>
