<svg xmlns="http://www.w3.org/2000/svg" xmlns:xlink="http://www.w3.org/1999/xlink" width="17" height="17" viewBox="0 0 17 17">
    <defs>
        <path id="prefix__a" d="M0 0H16V16H0z"/>
    </defs>
    <g fill="none" fill-rule="evenodd" transform="translate(.073 .934)">
        <mask id="prefix__b" fill="#fff">
            <use xlink:href="#prefix__a"/>
        </mask>
        <g fill="#000" mask="url(#prefix__b)">
            <path d="M3 15.5c-.11 0-.22-.037-.311-.108-.174-.138-.236-.373-.152-.579L4.66 9.544.212 6.41c-.178-.125-.254-.352-.189-.56C.09 5.641.282 5.5.5 5.5h5.172L7.529.331c.074-.206.264-.342.49-.33.219.008.406.157.463.367l1.4 5.132H15.5c.218 0 .41.141.476.349s-.01.434-.188.56l-4.449 3.135 2.125 5.269c.082.205.02.44-.153.579-.174.136-.416.145-.598.018L8 12.11l-4.713 3.3c-.087.06-.187.09-.287.09z"/>
        </g>
    </g>
</svg>
