<svg xmlns="http://www.w3.org/2000/svg" width="32" height="32" viewBox="0 0 32 32">
    <g fill="none" fill-rule="evenodd">
        <path d="M23.533 23.416L23.533 0.007 0 0.007 0 23.416z" transform="translate(4 4)"/>
        <path fill="#FFF" d="M11.766.007c-3.195 0-3.596.014-4.85.07-1.253.058-2.109.256-2.857.545-.774.299-1.43.7-2.084 1.35C1.32 2.622.918 3.275.618 4.045.327 4.789.128 5.64.07 6.886.014 8.134 0 8.533 0 11.712c0 3.178.014 3.577.07 4.825.058 1.246.257 2.097.548 2.841.3.77.703 1.423 1.357 2.074.654.65 1.31 1.05 2.084 1.35.748.289 1.604.487 2.856.544 1.255.057 1.656.07 4.851.07 3.196 0 3.596-.013 4.851-.07 1.253-.057 2.108-.255 2.857-.544.773-.3 1.43-.7 2.084-1.35.654-.651 1.056-1.304 1.357-2.074.29-.744.49-1.595.547-2.84.057-1.249.07-1.648.07-4.826 0-3.179-.013-3.578-.07-4.826-.057-1.246-.256-2.097-.547-2.841-.3-.77-.703-1.422-1.357-2.073-.654-.65-1.31-1.051-2.084-1.35-.749-.29-1.604-.487-2.857-.544-1.255-.057-1.655-.07-4.85-.07m0 2.108c3.141 0 3.513.012 4.754.068 1.147.053 1.77.243 2.185.403.549.213.94.466 1.353.876.411.41.666.8.88 1.346.16.412.353 1.032.405 2.173.057 1.234.069 1.604.069 4.73 0 3.125-.012 3.495-.07 4.73-.051 1.14-.243 1.76-.404 2.173-.214.546-.469.936-.88 1.345-.412.41-.804.664-1.353.876-.415.16-1.038.35-2.185.403-1.24.056-1.613.068-4.755.068s-3.514-.012-4.754-.068c-1.147-.052-1.77-.243-2.185-.403-.55-.212-.941-.466-1.353-.876-.412-.41-.667-.8-.88-1.345-.161-.413-.353-1.033-.405-2.174-.057-1.234-.069-1.604-.069-4.73 0-3.125.012-3.495.069-4.729.052-1.141.244-1.76.405-2.173.213-.547.468-.936.88-1.346.412-.41.804-.663 1.353-.876.414-.16 1.038-.35 2.185-.403 1.24-.056 1.613-.068 4.754-.068" transform="translate(4 4)"/>
        <path fill="#FFF" d="M12 15.895c-2.151 0-3.895-1.744-3.895-3.895S9.85 8.105 12 8.105 15.895 9.85 15.895 12 14.15 15.895 12 15.895M12 6c-3.314 0-6 2.686-6 6s2.686 6 6 6 6-2.686 6-6-2.686-6-6-6M20 5.5c0 .828-.672 1.5-1.5 1.5S17 6.328 17 5.5 17.672 4 18.5 4s1.5.672 1.5 1.5" transform="translate(4 4)"/>
    </g>
</svg>
