<svg xmlns="http://www.w3.org/2000/svg" width="32" height="32" viewBox="0 0 32 32">
    <path fill="#FFF" d="M13.347 24.37c.441-.75 1.103-1.94 1.367-2.91.133-.53.706-2.646.706-2.646.352.706 1.41 1.28 2.513 1.28 3.351 0 5.732-3.087 5.732-6.923 0-3.66-2.998-6.393-6.79-6.393-4.806.044-7.32 3.263-7.32 6.745 0 1.632.882 3.66 2.25 4.321.22.089.308.045.352-.132.044-.132.22-.925.309-1.278.044-.133 0-.22-.089-.309-.44-.573-.837-1.587-.837-2.513 0-2.47 1.852-4.806 4.982-4.806 2.734 0 4.63 1.851 4.63 4.497 0 2.998-1.5 5.07-3.484 5.07-1.102 0-1.896-.881-1.631-1.984.309-1.322.926-2.733.926-3.703 0-.838-.441-1.543-1.411-1.543-1.102 0-1.984 1.146-1.984 2.69 0 .97.309 1.63.309 1.63s-1.059 4.63-1.235 5.468c-.22.97-.132 2.293-.044 3.174l.132 1.191.617-.926zm5.005-11.684c0 .738-.117 1.194-.612 2.784-.084.272-.14.457-.193.64-.064.22-.115.415-.16.603-.043.184.03.272.281.272 1.115 0 2.095-1.405 2.095-3.682 0-1.65-.986-2.806-2.57-3.057.74.523 1.159 1.414 1.159 2.44zm-7.064 6.448l-.089-.04c-1.825-.883-3.032-3.33-3.032-5.57 0-4.58 3.46-8.087 8.708-8.135 4.571 0 8.179 3.364 8.179 7.782 0 4.62-2.992 8.311-7.121 8.311-.585 0-1.17-.113-1.706-.318-.08.298-.138.523-.173.661-.262.962-.78 2.01-1.51 3.25l-.04.066-2.733 4.098-.421-3.79-.134-1.205c-.144-1.441-.156-2.62.067-3.6.048-.226.156-.713.314-1.414-.103-.023-.206-.055-.309-.096z"/>
</svg>
