<svg xmlns="http://www.w3.org/2000/svg" width="32" height="32" viewBox="0 0 32 32">
    <g fill="none">
        <path fill="#000" d="M0 0H32V32H0z"/>
        <path fill="#000" d="M0 0H32V32H0z"/>
        <path fill="#FFF" d="M27.438 21.292c-.16-.437-.466-.672-.814-.861-.065-.035-.124-.07-.177-.094l-.318-.16c-1.084-.577-1.933-1.297-2.517-2.157-.165-.242-.312-.501-.43-.767-.053-.141-.047-.224-.012-.3.036-.06.083-.106.142-.148.188-.124.377-.247.507-.33.23-.153.418-.271.536-.354.442-.312.754-.642.949-1.014.277-.518.312-1.126.1-1.674-.295-.778-1.026-1.256-1.916-1.256-.188 0-.37.018-.56.06l-.147.035c.006-.531-.006-1.091-.053-1.645-.165-1.94-.849-2.954-1.556-3.762-.454-.507-.984-.937-1.58-1.273-1.072-.613-2.292-.926-3.619-.926-1.326 0-2.54.313-3.613.926-.595.336-1.126.766-1.58 1.273-.707.808-1.385 1.828-1.556 3.762-.047.554-.059 1.114-.053 1.645l-.147-.036c-.183-.041-.371-.059-.554-.059-.89 0-1.62.484-1.916 1.256-.212.548-.176 1.156.1 1.674.195.372.507.702.95 1.014.117.083.3.2.536.354.124.083.306.2.49.318.064.042.117.095.158.16.036.076.042.159-.017.312-.118.26-.26.513-.425.749-.572.837-1.397 1.55-2.446 2.122-.554.295-1.132.49-1.38 1.156-.182.5-.064 1.067.402 1.55.17.177.371.33.59.448.453.248.936.442 1.443.578.106.03.2.07.289.13.17.147.147.371.371.701.112.171.26.319.425.437.477.33 1.013.347 1.58.371.512.018 1.09.041 1.756.26.277.088.56.265.89.471.796.49 1.88 1.156 3.701 1.156 1.822 0 2.912-.672 3.714-1.162.33-.2.613-.377.878-.466.66-.218 1.244-.241 1.756-.259.566-.024 1.103-.041 1.58-.371.2-.142.366-.319.483-.531.165-.277.16-.472.313-.607.082-.06.177-.1.271-.124.507-.136 1.002-.33 1.462-.584.23-.123.442-.289.619-.483l.006-.006c.46-.472.571-1.026.389-1.51zm-1.615.866c-.985.543-1.645.484-2.152.814-.436.277-.177.878-.49 1.097-.388.265-1.532-.018-3.005.471-1.22.401-1.992 1.562-4.185 1.562-2.193 0-2.947-1.155-4.185-1.562-1.473-.49-2.617-.2-3.006-.471-.312-.219-.059-.82-.49-1.097-.512-.33-1.166-.271-2.15-.814-.631-.347-.272-.56-.065-.66 3.571-1.727 4.143-4.398 4.167-4.598.03-.242.065-.43-.2-.673-.254-.235-1.386-.937-1.704-1.155-.519-.366-.749-.725-.578-1.173.118-.307.407-.425.708-.425.094 0 .188.012.283.03.571.124 1.125.407 1.444.49.04.01.076.017.118.017.17 0 .23-.089.218-.283-.036-.625-.124-1.84-.024-2.977.136-1.563.637-2.341 1.238-3.025.289-.33 1.638-1.757 4.226-1.757s3.937 1.421 4.226 1.751c.601.684 1.102 1.462 1.238 3.025.1 1.137.012 2.352-.03 2.977-.011.206.048.283.219.283.04 0 .076-.006.117-.018.319-.076.873-.365 1.445-.49.094-.023.188-.029.282-.029.301 0 .59.118.708.425.17.448-.06.808-.578 1.173-.312.218-1.444.92-1.703 1.156-.266.241-.23.43-.2.672.023.2.595 2.87 4.166 4.598.213.1.566.319-.058.666z"/>
    </g>
</svg>
