<svg xmlns="http://www.w3.org/2000/svg" width="32" height="32" viewBox="0 0 32 32">
    <path fill="#FFF" fill-rule="evenodd" d="M11.478 26.293c8.983 0 13.899-7.425 13.899-13.853 0-.208 0-.417-.01-.626.953-.684 1.781-1.548 2.439-2.526-.877.39-1.82.646-2.81.77 1.01-.599 1.78-1.558 2.152-2.697-.943.56-1.99.959-3.105 1.177C23.147 7.588 21.88 7 20.48 7c-2.696 0-4.887 2.184-4.887 4.87 0 .38.048.75.124 1.112-4.058-.2-7.659-2.146-10.069-5.09-.42.722-.657 1.558-.657 2.45 0 1.69.867 3.18 2.172 4.054-.8-.028-1.553-.247-2.21-.607v.066c0 2.355 1.686 4.33 3.915 4.776-.41.114-.838.17-1.286.17-.315 0-.62-.028-.915-.085.62 1.937 2.43 3.343 4.563 3.38-1.676 1.31-3.782 2.09-6.068 2.09-.39 0-.781-.02-1.162-.067 2.153 1.367 4.725 2.174 7.478 2.174"/>
</svg>
