<?xml version="1.0" encoding="UTF-8"?>
<svg width="30px" height="14px" viewBox="0 0 30 14" version="1.1" xmlns="http://www.w3.org/2000/svg" xmlns:xlink="http://www.w3.org/1999/xlink">
    <title>icon/shop/A to Z</title>
    <g id="Page-1" stroke="none" stroke-width="1" fill="none" fill-rule="evenodd">
        <g id="Assets" transform="translate(-172.000000, -93.000000)">
            <g id="icon/shop/A-to-Z" transform="translate(171.000000, 85.000000)">
                <g id="A-to-Z">
                    <rect id="Rectangle" x="0" y="0" width="32" height="32"></rect>
                    <polygon id="Fill-1" fill="#2B80AD" points="22.0049778 8.19688889 22.0049778 9.308 28.1800889 9.308 21.2040889 21.9995556 30.2227556 21.9995556 30.2227556 20.8884444 23.0618667 20.8884444 30.0387556 8.19688889"></polygon>
                    <path d="M8.04017778,8.00008889 L1.77795556,21.9992 L3.00462222,21.9992 L4.58862222,18.4072 L11.3237333,18.4072 L12.8144,21.9992 L14.0819556,21.9992 L8.04017778,8.00008889 Z M8.02151111,10.5236444 L10.8606222,17.2960889 L5.04728889,17.2960889 L8.02151111,10.5236444 Z" id="Fill-2" fill="#2B80AD"></path>
                    <path d="M14.7466667,15.3504 C14.7466667,15.6695111 15.0062222,15.9290667 15.3253333,15.9290667 L15.3253333,15.9290667 C15.6453333,15.9290667 15.904,15.6695111 15.904,15.3504 L15.904,15.3504 C15.904,15.0304 15.6453333,14.7708444 15.3253333,14.7708444 L15.3253333,14.7708444 C15.0062222,14.7708444 14.7466667,15.0304 14.7466667,15.3504" id="Fill-3" fill="#2B80AD"></path>
                    <path d="M17.0035556,15.3504 C17.0035556,15.6695111 17.2613333,15.9290667 17.5813333,15.9290667 L17.5813333,15.9290667 C17.9013333,15.9290667 18.1608889,15.6695111 18.1608889,15.3504 L18.1608889,15.3504 C18.1608889,15.0304 17.9013333,14.7708444 17.5813333,14.7708444 L17.5813333,14.7708444 C17.2613333,14.7708444 17.0035556,15.0304 17.0035556,15.3504" id="Fill-6" fill="#2B80AD"></path>
                    <path d="M19.2604444,15.3504 C19.2604444,15.6695111 19.5191111,15.9290667 19.8382222,15.9290667 L19.8382222,15.9290667 C20.1582222,15.9290667 20.4168889,15.6695111 20.4168889,15.3504 L20.4168889,15.3504 C20.4168889,15.0304 20.1582222,14.7708444 19.8382222,14.7708444 L19.8382222,14.7708444 C19.5191111,14.7708444 19.2604444,15.0304 19.2604444,15.3504" id="Fill-9" fill="#2B80AD"></path>
                </g>
            </g>
        </g>
    </g>
</svg>