<?xml version="1.0" encoding="UTF-8"?>
<svg width="19px" height="32px" viewBox="0 0 19 32" version="1.1" xmlns="http://www.w3.org/2000/svg" xmlns:xlink="http://www.w3.org/1999/xlink">
    <title>icon/shop/Bath</title>
    <defs>
        <path d="M6.00888889,0 C4.99644444,0 4.17422222,0.824 4.17422222,1.83644444 L4.17422222,1.83644444 L4.17422222,7.00177778 C1.83822222,7.22844444 0.000888888889,9.18133333 0.000888888889,11.5751111 L0.000888888889,11.5751111 L0.000888888889,31.0524444 C0.000888888889,32.0648889 0.823111111,32.8888889 1.83555556,32.8888889 L1.83555556,32.8888889 L14.3582222,32.8888889 C15.3706667,32.8888889 16.1928889,32.0648889 16.1928889,31.0524444 L16.1928889,31.0524444 L16.1928889,11.5751111 C16.1928889,9.18133333 14.3546667,7.22844444 12.0195556,7.00177778 L12.0195556,7.00177778 L12.0195556,1.83644444 C12.0195556,0.824 11.1955556,0 10.1822222,0 L10.1822222,0 L6.00888889,0 Z M5.06311111,1.83644444 C5.06311111,1.31377778 5.48622222,0.888888889 6.00888889,0.888888889 L6.00888889,0.888888889 L10.1822222,0.888888889 C10.7057778,0.888888889 11.1306667,1.31377778 11.1306667,1.83644444 L11.1306667,1.83644444 L11.1306667,2.78222222 L5.06311111,2.78222222 L5.06311111,1.83644444 Z M5.06311111,6.95644444 L11.1306667,6.95644444 L11.1306667,3.67111111 L5.06311111,3.67111111 L5.06311111,6.95644444 Z M0.889777778,11.5751111 C0.889777778,9.51822222 2.56088889,7.84533333 4.61866667,7.84533333 L4.61866667,7.84533333 L11.5751111,7.84533333 C13.6302222,7.84533333 15.304,9.51822222 15.304,11.5751111 L15.304,11.5751111 L15.304,12.5217778 L0.889777778,12.5217778 L0.889777778,11.5751111 Z M0.889777778,27.8257778 L15.304,27.8257778 L15.304,13.4106667 L0.889777778,13.4106667 L0.889777778,27.8257778 Z M0.889777778,31.0524444 L0.889777778,28.7146667 L15.304,28.7146667 L15.304,31.0524444 C15.304,31.5751111 14.8791111,32 14.3582222,32 L14.3582222,32 L1.83555556,32 C1.31288889,32 0.889777778,31.5751111 0.889777778,31.0524444 L0.889777778,31.0524444 Z" id="path-1"></path>
    </defs>
    <g id="Page-1" stroke="none" stroke-width="1" fill="none" fill-rule="evenodd">
        <g id="Assets" transform="translate(-514.000000, -85.000000)">
            <g id="icon/shop/Bath" transform="translate(507.000000, 85.000000)">
                <g id="Bath" transform="translate(7.111111, 0.000000)">
                    <mask id="mask-2" fill="white">
                        <use xlink:href="#path-1"></use>
                    </mask>
                    <g id="Clip-2"></g>
                    <path d="M6.00888889,0 C4.99644444,0 4.17422222,0.824 4.17422222,1.83644444 L4.17422222,7.00177778 C1.83822222,7.22844444 0.000888888889,9.18133333 0.000888888889,11.5751111 L0.000888888889,30.1635556 C0.000888888889,31.176 0.823111111,32 1.83555556,32 L14.3582222,32 C15.3706667,32 16.1928889,31.176 16.1928889,30.1635556 L16.1928889,11.5751111 C16.1928889,9.18133333 14.3546667,7.22844444 12.0195556,7.00177778 L12.0195556,1.83644444 C12.0195556,0.824 11.1955556,0 10.1822222,0 L6.00888889,0 Z M5.06311111,1.83644444 C5.06311111,1.31377778 5.48622222,0.888888889 6.00888889,0.888888889 L6.00888889,0.888888889 L10.1822222,0.888888889 C10.7057778,0.888888889 11.1306667,1.31377778 11.1306667,1.83644444 L11.1306667,1.83644444 L11.1306667,2.78222222 L5.06311111,2.78222222 L5.06311111,1.83644444 Z M5.06311111,6.95644444 L11.1306667,6.95644444 L11.1306667,3.67111111 L5.06311111,3.67111111 L5.06311111,6.95644444 Z M0.889777778,11.5751111 C0.889777778,9.51822222 2.56088889,7.84533333 4.61866667,7.84533333 L4.61866667,7.84533333 L11.5751111,7.84533333 C13.6302222,7.84533333 15.304,9.51822222 15.304,11.5751111 L15.304,11.5751111 L15.304,12.5217778 L0.889777778,12.5217778 L0.889777778,11.5751111 Z M0.889777778,27.8257778 L15.304,27.8257778 L15.304,13.4106667 L0.889777778,13.4106667 L0.889777778,27.8257778 Z M0.889777778,31.0524444 L0.889777778,28.7146667 L15.304,28.7146667 L15.304,30.1635556 C15.304,30.6862222 14.8791111,31.1111111 14.3582222,31.1111111 L1.83555556,31.1111111 C1.31288889,31.1111111 0.889777778,30.6862222 0.889777778,30.1635556 L0.889777778,31.0524444 Z" id="Fill-1" fill="#FFAE32"></path>
                    <rect id="Rectangle" fill="#FFAE32" x="2.66666667" y="17.7777778" width="10.6666667" height="1"></rect>
                    <rect id="Rectangle-Copy" fill="#FFAE32" x="2.66666667" y="20.4444444" width="10.6666667" height="1"></rect>
                    <path d="M13.1795556,2.95911111 C13.1795556,4.35555556 14.3146667,5.49066667 15.7102222,5.49066667 L15.7102222,5.49066667 C17.1066667,5.49066667 18.2435556,4.35555556 18.2435556,2.95911111 L18.2435556,2.95911111 C18.2435556,1.56444444 17.1066667,0.428444444 15.7102222,0.428444444 L15.7102222,0.428444444 C14.3146667,0.428444444 13.1795556,1.56444444 13.1795556,2.95911111 M14.0684444,2.95911111 C14.0684444,2.05333333 14.8053333,1.31733333 15.7102222,1.31733333 L15.7102222,1.31733333 C16.6168889,1.31733333 17.3546667,2.05333333 17.3546667,2.95911111 L17.3546667,2.95911111 C17.3546667,3.86577778 16.6168889,4.60177778 15.7102222,4.60177778 L15.7102222,4.60177778 C14.8053333,4.60177778 14.0684444,3.86577778 14.0684444,2.95911111" id="Fill-4" fill="#FFAE32"></path>
                    <path d="M16.7235556,6.984 C16.7235556,7.35733333 17.0275556,7.66222222 17.4017778,7.66222222 L17.4017778,7.66222222 C17.776,7.66222222 18.0791111,7.35733333 18.0791111,6.984 L18.0791111,6.984 C18.0791111,6.61066667 17.776,6.30577778 17.4017778,6.30577778 L17.4017778,6.30577778 C17.0275556,6.30577778 16.7235556,6.61066667 16.7235556,6.984" id="Fill-7" fill="#FFAE32"></path>
                </g>
            </g>
        </g>
    </g>
</svg>