<?xml version="1.0" encoding="UTF-8"?>
<svg width="27px" height="32px" viewBox="0 0 27 32" version="1.1" xmlns="http://www.w3.org/2000/svg" xmlns:xlink="http://www.w3.org/1999/xlink">
    <title>icon/shop/Fragrance</title>
    <defs>
        <path d="M10.9635556,8.34844444 C10.4604444,8.34844444 9.97244444,8.55822222 9.62755556,8.92444444 C9.27733333,9.296 9.10044444,9.78222222 9.13155556,10.2924444 L10.3582222,30.2728889 C10.4151111,31.2417778 11.2204444,32 12.192,32 L23.4791111,32 C24.4506667,32 25.256,31.2417778 25.3128889,30.2728889 L26.5395556,10.2924444 C26.5697778,9.78933333 26.3884444,9.29066667 26.0435556,8.92444444 C25.6977778,8.55822222 25.2115556,8.34844444 24.7075556,8.34844444 L10.9635556,8.34844444 Z M10.0186667,10.24 C10.0026667,9.97688889 10.0933333,9.72622222 10.2746667,9.53422222 C10.4551111,9.34222222 10.7004444,9.23644444 10.9635556,9.23644444 L24.7075556,9.23644444 C24.9715556,9.23644444 25.216,9.34222222 25.3964444,9.53422222 C25.5777778,9.72622222 25.6684444,9.97688889 25.6524444,10.24 L24.4257778,30.2204444 C24.3955556,30.72 23.9804444,31.1111111 23.4791111,31.1111111 L12.192,31.1111111 C11.6906667,31.1111111 11.2755556,30.72 11.2453333,30.2204444 L10.0186667,10.24 Z" id="path-1"></path>
        <path d="M15.0524444,4.17333333 C14.8071111,4.17333333 14.608,4.37244444 14.608,4.61866667 L14.608,4.61866667 L14.608,8.792 C14.608,9.03733333 14.8071111,9.23644444 15.0524444,9.23644444 L15.0524444,9.23644444 L20.6177778,9.23644444 C20.8631111,9.23644444 21.0622222,9.03733333 21.0622222,8.792 L21.0622222,8.792 L21.0622222,4.61866667 C21.0622222,4.37244444 20.8631111,4.17333333 20.6177778,4.17333333 L20.6177778,4.17333333 L15.0524444,4.17333333 Z M15.4968889,8.34755556 L20.1724444,8.34755556 L20.1724444,5.06311111 L15.4968889,5.06311111 L15.4968889,8.34755556 Z" id="path-3"></path>
        <path d="M16.4435556,0 C16.1973333,0 15.9991111,0.198222222 15.9991111,0.444444444 L15.9991111,0.444444444 L15.9991111,4.61866667 C15.9991111,4.864 16.1973333,5.06311111 16.4435556,5.06311111 L16.4435556,5.06311111 L19.2266667,5.06311111 C19.472,5.06311111 19.6702222,4.864 19.6702222,4.61866667 L19.6702222,4.61866667 L19.6702222,0.444444444 C19.6702222,0.198222222 19.472,0 19.2266667,0 L19.2266667,0 L16.4435556,0 Z M16.888,4.17333333 L18.7813333,4.17333333 L18.7813333,0.888888889 L16.888,0.888888889 L16.888,4.17333333 Z" id="path-5"></path>
        <path d="M10.3724444,5.56533333 C6.57066667,5.56533333 3.47733333,8.65866667 3.47733333,12.4604444 L3.47733333,12.4604444 L3.47733333,17.1404444 C3.47733333,17.3857778 3.67644444,17.5848889 3.92266667,17.5848889 L3.92266667,17.5848889 C4.168,17.5848889 4.36622222,17.3857778 4.36622222,17.1404444 L4.36622222,17.1404444 L4.36622222,12.4604444 C4.36622222,9.14844444 7.06044444,6.45422222 10.3724444,6.45422222 L10.3724444,6.45422222 L15.0524444,6.45422222 C15.2986667,6.45422222 15.4977778,6.25511111 15.4977778,6.00977778 L15.4977778,6.00977778 C15.4977778,5.76444444 15.2986667,5.56533333 15.0524444,5.56533333 L15.0524444,5.56533333 L10.3724444,5.56533333 Z" id="path-7"></path>
        <path d="M0,23.4008889 C0,25.9671111 1.35555556,27.3244444 3.92266667,27.3244444 L3.92266667,27.3244444 C6.48888889,27.3244444 7.84444444,25.9671111 7.84444444,23.4008889 L7.84444444,23.4008889 C7.84444444,20.7324444 6.28,16.696 3.92266667,16.696 L3.92266667,16.696 C1.56444444,16.696 0,20.7324444 0,23.4008889 M0.888888889,23.4008889 C0.888888889,20.8613333 2.36,17.5848889 3.92266667,17.5848889 L3.92266667,17.5848889 C5.48444444,17.5848889 6.95644444,20.8613333 6.95644444,23.4008889 L6.95644444,23.4008889 C6.95644444,25.4711111 5.992,26.4355556 3.92266667,26.4355556 L3.92266667,26.4355556 C1.85244444,26.4355556 0.888888889,25.4711111 0.888888889,23.4008889" id="path-9"></path>
    </defs>
    <g id="Page-1" stroke="none" stroke-width="1" fill="none" fill-rule="evenodd">
        <g id="Assets" transform="translate(-451.000000, -85.000000)">
            <g id="icon/shop/Fragrance" transform="translate(451.000000, 85.000000)">
                <g id="Fragrance">
                    <mask id="mask-2" fill="white">
                        <use xlink:href="#path-1"></use>
                    </mask>
                    <use id="Clip-2" fill="#98B8AD" xlink:href="#path-1"></use>
                    <mask id="mask-4" fill="white">
                        <use xlink:href="#path-3"></use>
                    </mask>
                    <use id="Clip-5" fill="#98B8AD" xlink:href="#path-3"></use>
                    <mask id="mask-6" fill="white">
                        <use xlink:href="#path-5"></use>
                    </mask>
                    <use id="Clip-8" fill="#98B8AD" xlink:href="#path-5"></use>
                    <mask id="mask-8" fill="white">
                        <use xlink:href="#path-7"></use>
                    </mask>
                    <use id="Clip-11" fill="#98B8AD" xlink:href="#path-7"></use>
                    <mask id="mask-10" fill="white">
                        <use xlink:href="#path-9"></use>
                    </mask>
                    <use id="Clip-14" fill="#98B8AD" xlink:href="#path-9"></use>
                </g>
            </g>
        </g>
    </g>
</svg>