<?xml version="1.0" encoding="UTF-8"?>
<svg width="32px" height="30px" viewBox="0 0 32 30" version="1.1" xmlns="http://www.w3.org/2000/svg" xmlns:xlink="http://www.w3.org/1999/xlink">
    <title>icon/shop/Gifts</title>
    <g id="Page-1" stroke="none" stroke-width="1" fill="none" fill-rule="evenodd">
        <g id="Assets" transform="translate(-675.000000, -85.000000)" fill="#FF6365">
            <g id="icon/shop/Gifts" transform="translate(675.000000, 85.000000)">
                <g id="Gifts" transform="translate(0.888889, 0.888889)">
                    <path d="M21.0282559,0 C19.5043232,0 18.12967,0.848410012 17.4409697,2.21367794 L17.4409697,2.21367794 L15.1111111,6.56109798 L12.7812525,2.21367794 C12.0925522,0.848410012 10.717899,0 9.19488215,0 L9.19488215,0 C6.97675421,0 5.17074747,1.79128966 5.17074747,3.99225054 L5.17074747,3.99225054 C5.17074747,5.24124815 5.76420202,6.34309113 6.67178451,7.07613918 L6.67178451,7.07613918 L0.457912458,7.07613918 C0.204228956,7.07613918 0,7.27870388 0,7.52941176 L0,7.52941176 L0,13.5918191 C0,13.8425269 0.204228956,14.0450917 0.457912458,14.0450917 L0.457912458,14.0450917 L14.6522828,14.0450917 L14.6522828,27.5360825 L2.45257912,27.5360825 L2.45257912,14.7626976 L1.53675421,14.7626976 L1.53675421,27.9902635 C1.53675421,28.2418797 1.74189899,28.4444444 1.99466667,28.4444444 L1.99466667,28.4444444 L28.1249832,28.4444444 C28.3777508,28.4444444 28.5819798,28.2418797 28.5819798,27.9902635 L28.5819798,27.9902635 L28.5819798,14.7626976 L27.6661549,14.7626976 L27.6661549,27.5360825 L15.5681077,27.5360825 L15.5681077,14.0450917 L29.7643098,14.0450917 C30.0170774,14.0450917 30.2222222,13.8425269 30.2222222,13.5918191 L30.2222222,13.5918191 L30.2222222,7.52941176 C30.2222222,7.27870388 30.0170774,7.07613918 29.7643098,7.07613918 L29.7643098,7.07613918 L23.5513535,7.07613918 C24.458936,6.34309113 25.0514747,5.24124815 25.0514747,3.99225054 L25.0514747,3.99225054 C25.0514747,1.79128966 23.2472997,0 21.0282559,0 Z M18.2523906,2.6342495 C18.2533064,2.63061605 18.255138,2.62789097 18.2578855,2.62425752 L18.2578855,2.62425752 C18.7899798,1.56601591 19.8514209,0.908361897 21.0282559,0.908361897 L21.0282559,0.908361897 C22.7417643,0.908361897 24.1356498,2.29179707 24.1356498,3.99225054 L24.1356498,3.99225054 C24.1356498,5.69179565 22.7417643,7.07523082 21.0282559,7.07523082 L21.0282559,7.07523082 L15.8730774,7.07523082 L18.2523906,2.6342495 Z M6.08657239,3.99225054 C6.08657239,2.29179707 7.48045791,0.908361897 9.19488215,0.908361897 L9.19488215,0.908361897 C10.3708013,0.908361897 11.4322424,1.56601591 11.9652525,2.62425752 L11.9652525,2.62425752 C11.9670842,2.62789097 11.9689158,2.63061605 11.9707475,2.6342495 L11.9707475,2.6342495 L14.3491448,7.07523082 L9.19488215,7.07523082 C7.48045791,7.07523082 6.08657239,5.69179565 6.08657239,3.99225054 L6.08657239,3.99225054 Z M15.5681077,13.1376381 L29.3063973,13.1376381 L29.3063973,7.98450108 L15.5681077,7.98450108 L15.5681077,13.1376381 Z M0.915824916,13.1376381 L14.6522828,13.1376381 L14.6522828,7.98450108 L0.915824916,7.98450108 L0.915824916,13.1376381 Z" id="Fill-1"></path>
                </g>
            </g>
        </g>
    </g>
</svg>