<?xml version="1.0" encoding="UTF-8"?>
<svg width="32px" height="30px" viewBox="0 0 32 30" version="1.1" xmlns="http://www.w3.org/2000/svg" xmlns:xlink="http://www.w3.org/1999/xlink">
    <title>icon/shop/Hair</title>
    <g id="Page-1" stroke="none" stroke-width="1" fill="none" fill-rule="evenodd">
        <g id="Assets" transform="translate(-339.000000, -86.000000)" fill="#FFAE32">
            <g id="icon/shop/Hair" transform="translate(339.000000, 85.000000)">
                <g id="Hair" transform="translate(0.000000, 1.777778)">
                    <path d="M13.0086222,23.1259556 C13.0495111,23.3757333 12.9757333,23.6272889 12.8059556,23.8157333 C12.6361778,24.0041778 12.3979556,24.1037333 12.1384,24.0895111 L10.6210667,23.9988444 C10.2637333,23.9775111 9.96062222,23.7295111 9.86728889,23.3828444 L7.39795556,14.1624 C7.46106667,14.1392889 7.52684444,14.1206222 7.58995556,14.0948444 L11.2859556,12.5917333 L13.0086222,23.1259556 Z M3.45573333,13.1286222 C2.26817778,12.5384 1.38995556,11.4655111 1.04595556,10.1846222 C0.702844444,8.90284444 0.926844444,7.53306667 1.66017778,6.42817778 C2.39351111,5.32417778 3.56684444,4.5864 4.87973333,4.40417778 L19.1872889,2.42551111 L20.6352889,7.83173333 L7.25484444,13.2708444 C6.02817778,13.7704 4.6424,13.7179556 3.45573333,13.1286222 L3.45573333,13.1286222 Z M21.6966222,8.35973333 L19.8424,1.43795556 L4.75884444,3.52417778 C3.19351111,3.74017778 1.79351111,4.62017778 0.919733333,5.93662222 C0.0459555556,7.25484444 -0.2216,8.88595556 0.187288889,10.4148444 C0.597066667,11.9419556 1.64417778,13.2210667 3.06017778,13.9241778 C3.83084444,14.3081778 4.67173333,14.5001778 5.51351111,14.5001778 C5.8584,14.5001778 6.20151111,14.4672889 6.54195556,14.4032889 L9.00862222,23.6130667 C9.20151111,24.3295111 9.82817778,24.8406222 10.5677333,24.8859556 L11.2726222,24.9277333 L11.5271111,28.4737778 C11.5422222,28.7093333 11.7377778,28.8897778 11.9706667,28.8897778 C11.9804444,28.8897778 11.9893333,28.8897778 12,28.8888889 C12.2444444,28.8728889 12.4302222,28.6622222 12.4142222,28.4168889 L12.1668444,24.9792889 C12.1748444,24.9792889 12.1819556,24.9792889 12.1890667,24.9792889 C12.6761778,24.9792889 13.1384,24.7757333 13.4672889,24.4104 C13.8184,24.0201778 13.9712889,23.4992889 13.8859556,22.9819556 L13.1615111,18.5517333 C13.2032889,18.5641778 13.2459556,18.5766222 13.2895111,18.5766222 C13.3428444,18.5766222 13.4050667,18.5677333 13.4584,18.5410667 C13.5117333,18.5232889 13.5561778,18.4877333 13.6015111,18.4521778 C13.6806222,18.3632889 13.7339556,18.2477333 13.7339556,18.1321778 C13.7339556,18.0166222 13.6806222,17.9010667 13.6015111,17.8210667 C13.4761778,17.6966222 13.2806222,17.6610667 13.1117333,17.7232889 C13.0824,17.7375111 13.0601778,17.7588444 13.0344,17.7766222 L12.7588444,16.0939556 L12.9446222,16.0441778 C13.1810667,15.9801778 13.3224,15.7366222 13.2584,15.4992889 C13.1935111,15.2619556 12.9508444,15.1224 12.7135111,15.1855111 L12.6148444,15.2121778 L12.1304,12.2486222 L21.6966222,8.35973333 Z" id="Fill-1"></path>
                    <path d="M31.7816,3.46835556 C30.5780444,2.74568889 29.0127111,3.1368 28.2918222,4.33768889 C28.0642667,4.71635556 27.7024889,4.98391111 27.2740444,5.09057778 C26.8438222,5.19635556 26.4011556,5.13057778 26.0224889,4.90302222 C24.8216,4.18124444 23.2553778,4.57146667 22.5318222,5.77235556 C22.4056,5.98302222 22.4740444,6.25591111 22.6838222,6.38213333 C22.7558222,6.42568889 22.8349333,6.44613333 22.9122667,6.44613333 C23.0633778,6.44613333 23.2100444,6.3688 23.2944889,6.23013333 C23.7647111,5.44968889 24.7833778,5.19546667 25.5647111,5.6648 C26.1460444,6.01502222 26.8296,6.11635556 27.4891556,5.9528 C28.1478222,5.78835556 28.7033778,5.37768889 29.0536,4.79546667 C29.5229333,4.01502222 30.5407111,3.76168889 31.3247111,4.23013333 C31.5344889,4.35724444 31.8073778,4.2888 31.9344889,4.07813333 C32.0607111,3.86746667 31.9922667,3.59457778 31.7816,3.46835556" id="Fill-6"></path>
                    <path d="M23.4995556,2.37244444 C23.9271111,2.26488889 24.3724444,2.33244444 24.752,2.56 C25.9528889,3.28088889 27.5191111,2.89155556 28.2417778,1.68977778 C28.7111111,0.908444444 29.7306667,0.656 30.5128889,1.12533333 C30.7235556,1.25244444 30.9964444,1.184 31.1226667,0.973333333 C31.2488889,0.762666667 31.1804444,0.489777778 30.9697778,0.363555556 C29.7644444,-0.36 28.2008889,0.0311111111 27.48,1.232 C27.0106667,2.01422222 25.9928889,2.26844444 25.2097778,1.79822222 C24.6275556,1.44711111 23.944,1.34577778 23.2844444,1.51022222 C22.6257778,1.67377778 22.0702222,2.08533333 21.7208889,2.66755556 C21.5937778,2.87733333 21.6622222,3.15022222 21.8728889,3.27733333 C21.944,3.32 22.0231111,3.34044444 22.1013333,3.34044444 C22.2524444,3.34044444 22.3991111,3.26311111 22.4826667,3.12444444 C22.7093333,2.74666667 23.0711111,2.47911111 23.4995556,2.37244444" id="Fill-4"></path>
                </g>
            </g>
        </g>
    </g>
</svg>