<svg xmlns="http://www.w3.org/2000/svg" width="24" height="25" viewBox="0 0 24 25">
    <path d="M21.5 24.429h-6c-.828-.001-1.5-.672-1.5-1.5v-7c0-.276-.224-.5-.5-.5h-3c-.276 0-.5.224-.5.5v7c0 .828-.672 1.499-1.5 1.5h-6c-.828-.001-1.5-.672-1.5-1.5V9.514c0-.499.248-.965.661-1.244l9.485-6.392c.506-.343 1.17-.343 1.676 0l9.516 6.404c.414.279.662.745.662 1.244V22.93c0 .828-.672 1.499-1.5 1.5zm-11-10h3c.828 0 1.5.672 1.5 1.5v7c0 .276.224.5.5.5h6c.276 0 .5-.224.5-.5V9.526c0-.166-.083-.322-.22-.414l-9.517-6.405c-.168-.115-.39-.115-.558 0L2.22 9.099c-.138.093-.22.249-.22.415v13.415c0 .276.224.5.5.5h6c.276 0 .5-.224.5-.5v-7c0-.828.672-1.5 1.5-1.5z" opacity=".6"/>
</svg>
