<svg xmlns="http://www.w3.org/2000/svg" width="24" height="25" viewBox="0 0 24 25">
    <g fill="none" fill-rule="evenodd">
        <path d="M0 0H24V24H0z" transform="translate(0 .429)"/>
        <g fill="#000" opacity=".6">
            <path d="M3.5 2.914H3v-.5c0-.276-.224-.5-.5-.5s-.5.224-.5.5v.5h-.5c-.276 0-.5.224-.5.5s.224.5.5.5H2v.5c0 .276.224.5.5.5s.5-.224.5-.5v-.5h.5c.276 0 .5-.224.5-.5s-.224-.5-.5-.5M9.207 4.414l.354-.354c.195-.195.195-.511 0-.707-.196-.195-.512-.195-.708 0l-.353.354-.354-.354c-.195-.195-.511-.195-.707 0-.195.196-.195.512 0 .707l.354.354-.354.354c-.195.195-.195.51 0 .707.098.097.226.146.354.146.128 0 .256-.05.353-.146L8.5 5.12l.353.354c.098.097.226.146.354.146.128 0 .256-.05.354-.146.195-.196.195-.512 0-.707l-.354-.354zM5.568 1.914c-.276 0-.51-.224-.51-.5s.214-.5.49-.5h.02c.276 0 .5.224.5.5s-.224.5-.5.5M21.568 6.914c-.276 0-.51-.224-.51-.5s.214-.5.49-.5h.02c.276 0 .5.224.5.5s-.224.5-.5.5M4 21.364c0-.17.013-.334.025-.5H1.038c.275-1.764 2.014-2.695 3.952-2.933.239-.381.515-.738.825-1.061C2.891 16.926 0 18.32 0 21.364c0 .276.224.5.5.5h3.592c-.056-.157-.092-.324-.092-.5M19 10.864c-1.103 0-2 .897-2 2s.897 2 2 2 2-.897 2-2-.897-2-2-2m0 5c-1.654 0-3-1.346-3-3s1.346-3 3-3 3 1.346 3 3-1.346 3-3 3M5 10.864c-1.103 0-2 .897-2 2s.897 2 2 2 2-.897 2-2-.897-2-2-2m0 5c-1.654 0-3-1.346-3-3s1.346-3 3-3 3 1.346 3 3-1.346 3-3 3M18.185 16.87c.31.323.586.68.825 1.062 1.939.237 3.676 1.168 3.95 2.932h-2.985c.013.166.025.33.025.5 0 .176-.036.343-.091.5h3.59c.277 0 .5-.223.5-.5 0-3.044-2.89-4.438-5.814-4.494M6.027 21h11.878c-.25-2.247-2.16-4-4.473-4H10.5c-2.313 0-4.223 1.753-4.473 4m12.405 1H5.5c-.277 0-.5-.224-.5-.5 0-3.033 2.467-5.5 5.5-5.5h2.932c3.033 0 5.5 2.467 5.5 5.5 0 .276-.223.5-.5.5M11.933 9c-1.103 0-2 .897-2 2s.897 2 2 2 2-.897 2-2-.897-2-2-2m0 5c-1.654 0-3-1.346-3-3s1.346-3 3-3 3 1.346 3 3-1.346 3-3 3M16.124 1c-.308 0-.585.118-.725.258-.257.208-.304.492-.313.645-.021.345.104.714.31.92.455.562 1.336 1.346 2.082 1.955.475-.388 1.542-1.284 2.045-1.914.244-.247.369-.616.349-.96-.009-.154-.056-.437-.271-.608-.016-.012-.03-.025-.044-.039-.168-.169-.54-.308-.925-.239-.224.038-.527.162-.701.532-.164.351-.741.351-.905 0-.174-.37-.476-.494-.7-.532-.068-.013-.136-.018-.202-.018zm1.355 4.866c-.153 0-.306-.05-.434-.153-.401-.32-1.753-1.426-2.393-2.224-.371-.368-.601-1.013-.564-1.644.032-.553.262-1.027.647-1.332.388-.394 1.097-.597 1.763-.48.381.066.714.228.98.471.267-.243.601-.405.982-.472.66-.114 1.352.081 1.784.5.373.305.595.771.626 1.314.036.631-.194 1.276-.602 1.684-.607.762-1.956 1.864-2.354 2.182-.128.102-.281.154-.435.154z" transform="translate(0 .429) translate(0 1)"/>
        </g>
    </g>
</svg>
