<svg xmlns="http://www.w3.org/2000/svg" width="24" height="25" viewBox="0 0 24 25">
    <g fill="none" fill-rule="evenodd" opacity=".6">
        <g stroke="#000" stroke-linecap="round" stroke-linejoin="round">
            <path d="M5.217 6.59c.77.23 1.58-.212 1.81-.983.228-.772-.212-1.58-.984-1.81-.771-.228-1.581.212-1.81.983-.227.772.213 1.581.984 1.81z" transform="translate(-3 -.571) rotate(75 12.348 16.258)"/>
            <path d="M11.603 2.405L3.611.04c-.515-.153-1.055.141-1.206.655L.04 8.688c-.074.247-.045.513.078.74l7.865 14.476c.256.471.846.646 1.316.39l10.36-5.629c.47-.256.644-.845.388-1.317L12.181 2.872c-.123-.226-.33-.394-.578-.467z" transform="translate(-3 -.571) rotate(75 12.348 16.258)"/>
        </g>
        <path fill="#000" fill-rule="nonzero" d="M17.009 10c-.133 0-.26.053-.354.146l-.35.35c-.38-.265-.824-.423-1.286-.457-.617-.054-1.227.167-1.666.603-1.047 1.046-.282 2.511.092 3.224.729 1.332.499 1.801.261 2.038-.582.476-1.438.397-1.925-.176-.455-.549-.729-1.225-.782-1.936-.012-.178-.118-.337-.279-.415-.16-.079-.35-.066-.499.034-.148.1-.232.271-.22.45.065.778.327 1.528.763 2.177l-.36.36c-.129.126-.18.311-.134.485.046.174.182.31.356.356.174.046.359-.005.485-.134l.351-.351c.423.296.927.458 1.443.463.564.007 1.107-.21 1.508-.606 1.082-1.082.198-2.695-.087-3.217-.57-1.092-.646-1.666-.266-2.045.237-.23.563-.345.892-.313.392.033.759.206 1.033.488.374.356.549.874.464 1.383-.027.13-.001.265.071.376.073.111.186.189.316.216.13.029.266.004.377-.069.112-.073.19-.187.215-.318.121-.664-.032-1.35-.425-1.9l.36-.359c.093-.093.146-.22.146-.353 0-.133-.053-.26-.147-.354-.093-.093-.22-.146-.353-.146z" transform="translate(-3 -.571)"/>
    </g>
</svg>
