<svg xmlns="http://www.w3.org/2000/svg" width="24" height="25" viewBox="0 0 24 25">
    <g fill="none" fill-rule="evenodd" opacity=".6">
        <path d="M0 0H24V24H0z" transform="translate(0 .429)"/>
        <path fill="#000" fill-rule="nonzero" d="M1 22.5V6h3v1.5c0 .276.224.5.5.5s.5-.224.5-.5V6h5v1.5c0 .276.224.5.5.5s.5-.224.5-.5V6h3v5h1V5.5c0-.133-.053-.26-.146-.354C14.76 5.053 14.633 5 14.5 5H11V3.5C11 1.567 9.433 0 7.5 0S4 1.567 4 3.5V5H.5c-.133 0-.26.053-.354.146C.053 5.24 0 5.367 0 5.5v17c0 .828.672 1.5 1.5 1.5H8v-1H1.5c-.276 0-.5-.224-.5-.5zm4-19C5 2.12 6.12 1 7.5 1S10 2.12 10 3.5V5H5V3.5z" transform="translate(0 .429)"/>
        <path fill="#000" fill-rule="nonzero" d="M23.5 12h-14c-.133 0-.26.053-.354.146-.093.094-.146.221-.146.354v10c0 .828.672 1.5 1.5 1.5h12c.828 0 1.5-.672 1.5-1.5v-10c0-.133-.053-.26-.146-.354-.094-.093-.221-.146-.354-.146zM23 22.5c0 .276-.224.5-.5.5h-12c-.276 0-.5-.224-.5-.5V13h13v9.5z" transform="translate(0 .429)"/>
        <path fill="#000" fill-rule="nonzero" d="M16.5 20c1.932-.002 3.498-1.568 3.5-3.5v-1c0-.276-.224-.5-.5-.5s-.5.224-.5.5v1c0 1.38-1.12 2.5-2.5 2.5S14 17.88 14 16.5v-1c0-.276-.224-.5-.5-.5s-.5.224-.5.5v1c.002 1.932 1.568 3.498 3.5 3.5z" transform="translate(0 .429)"/>
    </g>
</svg>
