<?xml version="1.0" encoding="UTF-8"?>
<svg width="26px" height="32px" viewBox="0 0 26 32" version="1.1" xmlns="http://www.w3.org/2000/svg" xmlns:xlink="http://www.w3.org/1999/xlink">
    <title>icon/shop/Makeup</title>
    <g id="Page-1" stroke="none" stroke-width="1" fill="none" fill-rule="evenodd">
        <g id="Assets" transform="translate(-230.000000, -85.000000)" fill="#CF142C">
            <g id="icon/shop/Makeup" transform="translate(227.000000, 85.000000)">
                <g id="Makeup" transform="translate(3.555556, 0.000000)">
                    <path d="M6.43573333,28.5216889 C6.35217778,29.9741333 5.24817778,31.1110222 3.92284444,31.1110222 C2.59751111,31.1110222 1.49351111,29.9732444 1.40995556,28.5216889 L0.915733333,19.9421333 L6.92995556,19.9421333 L6.43573333,28.5216889 Z M7.40106667,19.0532444 L0.444622222,19.0532444 C0.321955556,19.0532444 0.205511111,19.1030222 0.121066667,19.1919111 C0.0375111111,19.2808 -0.00693333333,19.4008 0.00106666667,19.5225778 L0.522844444,28.5732444 C0.633066667,30.4950222 2.12728889,31.9999111 3.92284444,31.9999111 C5.7184,31.9999111 7.21262222,30.4950222 7.32284444,28.5732444 L7.84462222,19.5225778 C7.85173333,19.4008 7.80817778,19.2808 7.72462222,19.1919111 C7.64017778,19.1030222 7.52373333,19.0532444 7.40106667,19.0532444 L7.40106667,19.0532444 Z" id="Fill-1"></path>
                    <path d="M1.14008889,4.17404444 C0.894755556,4.17404444 0.695644444,4.37315556 0.695644444,4.61848889 C0.695644444,4.86382222 0.894755556,5.06293333 1.14008889,5.06293333 L3.47786667,5.06293333 L3.47786667,6.24515556 L1.83608889,6.24515556 C1.58986667,6.24515556 1.39164444,6.44426667 1.39164444,6.6896 C1.39164444,6.93493333 1.58986667,7.13404444 1.83608889,7.13404444 L3.47786667,7.13404444 L3.47786667,8.34737778 L3.05297778,8.34737778 C2.80764444,8.34737778 2.60853333,8.54648889 2.60853333,8.79182222 C2.60853333,9.03804444 2.80764444,9.23626667 3.05297778,9.23626667 L3.47786667,9.23626667 L3.47786667,18.0869333 L4.36675556,18.0869333 L4.36675556,9.23626667 L4.79253333,9.23626667 C5.03786667,9.23626667 5.23697778,9.03804444 5.23697778,8.79182222 C5.23697778,8.54648889 5.03786667,8.34737778 4.79253333,8.34737778 L4.36675556,8.34737778 L4.36675556,7.13404444 L6.01031111,7.13404444 C6.25564444,7.13404444 6.45475556,6.93493333 6.45475556,6.6896 C6.45475556,6.44426667 6.25564444,6.24515556 6.01031111,6.24515556 L4.36675556,6.24515556 L4.36675556,5.06293333 L6.70542222,5.06293333 C6.95075556,5.06293333 7.14986667,4.86382222 7.14986667,4.61848889 C7.14986667,4.37315556 6.95075556,4.17404444 6.70542222,4.17404444 L4.36675556,4.17404444 L4.36675556,2.9696 L6.70542222,2.9696 C6.95075556,2.9696 7.14986667,2.77048889 7.14986667,2.52515556 C7.14986667,2.27893333 6.95075556,2.08071111 6.70542222,2.08071111 L4.36675556,2.08071111 L4.36675556,0.888711111 L5.31431111,0.888711111 C5.55964444,0.888711111 5.75875556,0.690488889 5.75875556,0.444266667 C5.75875556,0.198933333 5.55964444,-0.000177777778 5.31431111,-0.000177777778 L4.36675556,-0.000177777778 L3.47786667,-0.000177777778 L2.5312,-0.000177777778 C2.28586667,-0.000177777778 2.08675556,0.198933333 2.08675556,0.444266667 C2.08675556,0.690488889 2.28586667,0.888711111 2.5312,0.888711111 L3.47786667,0.888711111 L3.47786667,2.08071111 L1.14008889,2.08071111 C0.894755556,2.08071111 0.695644444,2.27893333 0.695644444,2.52515556 C0.695644444,2.77048889 0.894755556,2.9696 1.14008889,2.9696 L3.47786667,2.9696 L3.47786667,4.17404444 L1.14008889,4.17404444 Z" id="Fill-3"></path>
                    <path d="M24.348,30.1640889 C24.348,30.6858667 23.9231111,31.1107556 23.4013333,31.1107556 L15.9417778,31.1107556 C15.42,31.1107556 14.9951111,30.6858667 14.9951111,30.1640889 L14.9951111,18.7392 L24.348,18.7392 L24.348,30.1640889 Z M14.1062222,17.8503111 L14.1062222,30.1640889 C14.1062222,31.1765333 14.9302222,31.9996444 15.9417778,31.9996444 L23.4013333,31.9996444 C24.4128889,31.9996444 25.2368889,31.1765333 25.2368889,30.1640889 L25.2368889,17.8503111 L14.1062222,17.8503111 Z" id="Fill-6"></path>
                    <path d="M22.0099556,10.8598222 L17.3335111,10.8598222 L17.3335111,10.0207111 L17.3335111,8.21626667 L17.3335111,6.83671111 L17.3468444,6.82782222 C17.3432889,6.81004444 17.3361778,6.79582222 17.3335111,6.77715556 L17.3335111,6.51582222 C17.3459556,5.82426667 17.8117333,4.96915556 18.6108444,4.17004444 C19.8410667,2.9416 21.2588444,2.64471111 21.7619556,3.14515556 C21.9139556,3.29715556 21.9824,3.51493333 21.9948444,3.7816 L21.9948444,3.78071111 L21.9948444,3.78515556 C21.9966222,3.82071111 22.0090667,3.84648889 22.0081778,3.88471111 C22.0072889,3.90871111 21.9966222,3.93537778 21.9948444,3.95937778 L21.9948444,6.19671111 C21.9992889,6.19137778 22.0055111,6.18515556 22.0099556,6.17982222 L22.0099556,10.8598222 Z M22.8988444,10.9202667 L22.8988444,3.91226667 C22.8988444,3.91048889 22.8979556,3.90871111 22.8979556,3.90693333 C22.8988444,3.89982222 22.8997333,3.89182222 22.8997333,3.88471111 C22.8997333,3.87582222 22.8961778,3.86782222 22.8952889,3.85893333 C22.9006222,3.32204444 22.7299556,2.85804444 22.3912889,2.5176 C21.4428444,1.57271111 19.5068444,2.01982222 17.9824,3.5416 C17.0064,4.5176 16.4597333,5.57004444 16.4446222,6.50515556 L16.4446222,6.51226667 L16.4446222,10.9202667 C15.6472889,11.1202667 15.0535111,11.8376 15.0535111,12.6953778 L15.0535111,16.9273778 L15.9424,16.9273778 L15.9424,12.6953778 C15.9424,12.1736 16.3664,11.7487111 16.8890667,11.7487111 L22.4544,11.7487111 C22.9761778,11.7487111 23.4010667,12.1736 23.4010667,12.6953778 L23.4010667,16.9273778 L24.2899556,16.9273778 L24.2899556,12.6953778 C24.2899556,11.8376 23.6952889,11.1202667 22.8988444,10.9202667 L22.8988444,10.9202667 Z" id="Fill-8"></path>
                </g>
            </g>
        </g>
    </g>
</svg>