<?xml version="1.0" encoding="UTF-8"?>
<svg width="31px" height="33px" viewBox="0 0 31 33" version="1.1" xmlns="http://www.w3.org/2000/svg" xmlns:xlink="http://www.w3.org/1999/xlink">
    <title>icon/shop/Men</title>
    <g id="Page-1" stroke="none" stroke-width="1" fill="none" fill-rule="evenodd">
        <g id="Assets" transform="translate(-563.000000, -85.000000)" fill="#FF585A">
            <g id="icon/shop/Men" transform="translate(563.000000, 85.000000)">
                <g id="Men" transform="translate(0.888889, 0.000000)">
                    <path d="M15.304,5.31342222 C15.304,5.45208889 15.1911111,5.56497778 15.0533333,5.56497778 L13.4106667,5.56497778 L13.4106667,0.888533333 L15.0533333,0.888533333 C15.1911111,0.888533333 15.304,1.00142222 15.304,1.14008889 L15.304,5.31342222 Z M3.67111111,2.78186667 L12.5217778,2.78186667 L12.5217778,0.888533333 L3.67111111,0.888533333 L3.67111111,2.78186667 Z M12.5217778,5.56497778 L11.5751111,5.56497778 L4.61866667,5.56497778 L3.67111111,5.56497778 L3.67111111,3.67075556 L12.5217778,3.67075556 L12.5217778,5.56497778 Z M11.1306667,8.09653333 C11.1306667,8.23431111 11.0177778,8.3472 10.8791111,8.3472 L10.1831111,8.3472 L6.00977778,8.3472 L5.31377778,8.3472 C5.17511111,8.3472 5.06311111,8.23431111 5.06311111,8.09653333 L5.06311111,6.45386667 L11.1306667,6.45386667 L11.1306667,8.09653333 Z M6.85777778,31.1507556 C6.71822222,31.1507556 6.45244444,30.7738667 6.45244444,30.1809778 L6.45244444,9.23608889 L9.71644444,9.23608889 L9.71644444,30.1809778 C9.71644444,30.7738667 9.45066667,31.1507556 9.31111111,31.1507556 L6.85777778,31.1507556 Z M2.78222222,5.56497778 L1.13955556,5.56497778 C1.00177778,5.56497778 0.888888889,5.45208889 0.888888889,5.31342222 L0.888888889,1.14008889 C0.888888889,1.00142222 1.00177778,0.888533333 1.13955556,0.888533333 L2.78222222,0.888533333 L2.78222222,5.56497778 Z M16.1928889,1.14008889 C16.1928889,0.511644444 15.6817778,-0.000355555555 15.0533333,-0.000355555555 L1.13955556,-0.000355555555 C0.511111111,-0.000355555555 0,0.511644444 0,1.14008889 L0,5.31342222 C0,5.94275556 0.511111111,6.45386667 1.13955556,6.45386667 L4.17422222,6.45386667 L4.17422222,8.09653333 C4.17422222,8.72497778 4.68533333,9.23608889 5.31377778,9.23608889 L5.54933333,9.23608889 L5.54933333,30.1809778 C5.54933333,31.2307556 6.14577778,32 6.88,32 L9.33333333,32 C10.0666667,32 10.6186667,31.2307556 10.6186667,30.1809778 L10.6186667,9.23608889 L10.6275556,9.23608889 L10.8791111,9.23608889 C11.5075556,9.23608889 12.0195556,8.72497778 12.0195556,8.09653333 L12.0195556,6.45386667 L15.0533333,6.45386667 C15.6817778,6.45386667 16.1928889,5.94275556 16.1928889,5.31342222 L16.1928889,1.14008889 Z" id="Fill-1"></path>
                    <path d="M28.3856,15.3811556 C28.0416,14.9527111 27.6140444,14.6202667 27.1438222,14.3722667 C27.1304889,14.3616 27.1144889,14.3544889 27.1002667,14.3447111 C26.5571556,14.0682667 25.9544889,13.9127111 25.3251556,13.9127111 L20.0851556,13.9127111 C19.6424889,13.9127111 19.2193778,14.0087111 18.8131556,14.1482667 C18.7962667,14.1491556 18.7793778,14.1447111 18.7616,14.1482667 C18.6967111,14.1616 18.6398222,14.1891556 18.5891556,14.2264889 C17.9882667,14.4744889 17.4451556,14.8567111 17.0247111,15.3811556 C16.2762667,16.3136 15.9962667,17.5180444 16.2558222,18.6860444 L17.5980444,24.7313778 C17.6522667,24.9713778 17.8904889,25.1189333 18.1287111,25.0682667 C18.3678222,25.0149333 18.5189333,24.7776 18.4664889,24.5384889 L17.1233778,18.4931556 C16.9224889,17.5900444 17.1393778,16.6584889 17.7180444,15.9367111 C17.9456,15.6531556 18.2264889,15.4327111 18.5287111,15.2513778 L20.0318222,22.7598222 C20.0727111,22.9713778 20.2584889,23.1171556 20.4664889,23.1171556 C20.4949333,23.1171556 20.5242667,23.1144889 20.5536,23.1082667 C20.7944889,23.0611556 20.9509333,22.8264889 20.9029333,22.5856 L19.3642667,14.8922667 C19.5971556,14.8353778 19.8380444,14.8016 20.0851556,14.8016 L22.2602667,14.8016 L22.2602667,17.1402667 C22.2602667,17.3856 22.4593778,17.5847111 22.7047111,17.5847111 C22.9509333,17.5847111 23.1491556,17.3856 23.1491556,17.1402667 L23.1491556,14.8016 L25.3251556,14.8016 C25.6753778,14.8016 26.0096,14.8780444 26.3296,14.9909333 L25.0584889,19.8078222 C24.9962667,20.0460444 25.1376,20.2887111 25.3749333,20.3518222 C25.4122667,20.3624889 25.4504889,20.3660444 25.4887111,20.3660444 C25.6851556,20.3660444 25.8656,20.2344889 25.9180444,20.0353778 L27.1384889,15.4113778 C27.3402667,15.5624889 27.5296,15.7340444 27.6922667,15.9367111 C28.2709333,16.6584889 28.4878222,17.5900444 28.2878222,18.4931556 L26.9242667,24.6229333 C26.8718222,24.8629333 27.0229333,25.1002667 27.2620444,25.1536 C27.2949333,25.1607111 27.3278222,25.1642667 27.3598222,25.1642667 C27.5624889,25.1642667 27.7464889,25.0238222 27.7927111,24.8158222 L29.1553778,18.6860444 C29.4140444,17.5180444 29.1340444,16.3136 28.3856,15.3811556" id="Fill-4"></path>
                    <path d="M27.3816889,30.2344 C27.3816889,30.7561778 26.9568,31.1810667 26.4350222,31.1810667 L18.9754667,31.1810667 C18.4536889,31.1810667 18.0288,30.7561778 18.0288,30.2344 L18.0288,26.8086222 L27.3816889,26.8086222 L27.3816889,30.2344 Z M17.1399111,25.9197333 L17.1399111,30.2344 C17.1399111,31.2468444 17.9639111,32.0699556 18.9754667,32.0699556 L26.4350222,32.0699556 C27.4465778,32.0699556 28.2705778,31.2468444 28.2705778,30.2344 L28.2705778,25.9197333 L17.1399111,25.9197333 Z" id="Fill-6"></path>
                </g>
            </g>
        </g>
    </g>
</svg>