<?xml version="1.0" encoding="UTF-8"?>
<svg width="32px" height="29px" viewBox="0 0 32 29" version="1.1" xmlns="http://www.w3.org/2000/svg" xmlns:xlink="http://www.w3.org/1999/xlink">
    <title>icon/shop/Minis</title>
    <g id="Page-1" stroke="none" stroke-width="1" fill="none" fill-rule="evenodd">
        <g id="Assets" transform="translate(-619.000000, -86.000000)" fill="#3384B0">
            <g id="icon/shop/Minis" transform="translate(619.000000, 85.000000)">
                <g id="Minis" transform="translate(0.000000, 1.777778)">
                    <path d="M25.3102222,26.7840889 L5.80088889,26.7840889 C4.44,26.7840889 3.17422222,26.2392 2.23733333,25.2516444 C1.30044444,24.2640889 0.824,22.9725333 0.896,21.6116444 L1.60088889,7.28453333 C2.14844444,5.11653333 4.08355556,3.5672 6.34755556,3.5672 L25.6266667,3.5672 C27.9484444,3.5672 29.9066667,5.17342222 30.4044444,7.41431111 L31.104,21.6134222 C31.176,22.9734222 30.6986667,24.2658667 29.7617778,25.2525333 C28.8248889,26.2400889 26.6702222,26.7840889 25.3102222,26.7840889 Z M25.4071111,0.888977778 C27.8222222,0.888977778 29.8204444,2.63742222 30.2248889,4.96008889 C29.1591111,3.56542222 27.4951111,2.67831111 25.6266667,2.67831111 L6.34755556,2.67831111 C4.50488889,2.67831111 2.84977778,3.55386667 1.77955556,4.92986667 C2.19555556,2.62231111 4.18755556,0.888977778 6.59288889,0.888977778 L25.4071111,0.888977778 Z M31.2008889,5.51564444 C31.048,2.42231111 28.5031111,8.88888891e-05 25.4071111,8.88888891e-05 L6.59288889,8.88888891e-05 C3.49777778,8.88888891e-05 0.952,2.42231111 0.798222222,5.51564444 L0.008,21.5672 C-0.0764444444,23.1707556 0.485333333,24.6969778 1.592,25.8632 C2.69866667,27.0303111 4.19288889,27.6729778 5.80088889,27.6729778 L26.1991111,27.6729778 C27.8062222,27.6729778 29.2995556,27.0303111 30.4062222,25.8640889 C31.5128889,24.6987556 32.0764444,23.1725333 31.992,21.5680889 L31.2008889,5.51564444 Z" id="Fill-1"></path>
                    <path d="M13.3629333,22 C13.2811556,22.2231111 13.1176,22.4008889 12.9016,22.5004444 C12.6856,22.6026667 12.4411556,22.6115556 12.2144889,22.5288889 L10.9593778,22.064 C10.7344889,21.9813333 10.5558222,21.816 10.4562667,21.5991111 C10.3567111,21.3831111 10.3469333,21.1395556 10.4304889,20.9146667 L11.2029333,18.8204444 L14.1389333,19.904 L13.3629333,22 Z M14.1718222,7.06755556 L19.5211556,9.04266667 L14.4900444,19.0862222 L11.4678222,17.9706667 L14.1718222,7.06755556 Z M20.5380444,8.99644444 C20.5949333,8.88355556 20.6002667,8.752 20.5540444,8.63466667 C20.5078222,8.51644444 20.4136,8.42488889 20.2944889,8.38133333 L14.0136,6.06222222 C13.8953778,6.01777778 13.7647111,6.02666667 13.6518222,6.08711111 C13.5398222,6.14577778 13.4589333,6.24888889 13.4287111,6.37244444 L10.5158222,18.1164444 L9.59671111,20.6071111 C9.43137778,21.0551111 9.45004444,21.5386667 9.64826667,21.9715556 C9.84737778,22.4035556 10.2047111,22.7324444 10.6518222,22.8977778 L11.9069333,23.3617778 L11.9069333,23.3617778 C12.1087111,23.4364444 12.3184889,23.4737778 12.5273778,23.4737778 C12.7824889,23.4737778 13.0367111,23.4186667 13.2758222,23.3084444 C13.7069333,23.1084444 14.0340444,22.752 14.1967111,22.3075556 L15.1220444,19.8088889 L20.5380444,8.99644444 Z" id="Fill-4"></path>
                    <path d="M7.52053333,18.7490667 L6.18097778,18.7490667 C6.05742222,18.7490667 5.95608889,18.6477333 5.95608889,18.5232889 L5.95608889,16.9588444 L7.74542222,16.9588444 L7.74542222,18.5232889 C7.74542222,18.6477333 7.64497778,18.7490667 7.52053333,18.7490667 M6.18097778,7.58462222 L7.52053333,7.58462222 C7.64497778,7.58462222 7.74542222,7.68595556 7.74542222,7.80951111 L7.74542222,16.0699556 L5.95608889,16.0699556 L5.95608889,7.80951111 C5.95608889,7.68595556 6.05742222,7.58462222 6.18097778,7.58462222 M7.52053333,6.69573333 L6.18097778,6.69573333 C5.56675556,6.69573333 5.0672,7.19617778 5.0672,7.80951111 L5.0672,18.5232889 C5.0672,19.1375111 5.56675556,19.6379556 6.18097778,19.6379556 L7.52053333,19.6379556 C8.13475556,19.6379556 8.63431111,19.1375111 8.63431111,18.5232889 L8.63431111,7.80951111 C8.63431111,7.19617778 8.13475556,6.69573333 7.52053333,6.69573333" id="Fill-6"></path>
                    <path d="M22.6424889,24.1058667 C19.1891556,24.1058667 18.7900444,22.6072 18.7900444,21.4809778 C18.7900444,19.3565333 20.5180444,17.6294222 22.6424889,17.6294222 C24.7669333,17.6294222 26.4940444,19.3565333 26.4940444,21.4809778 C26.4940444,22.6072 26.0949333,24.1058667 22.6424889,24.1058667 L22.6424889,24.1058667 Z M21.5313778,16.7405333 L22.1180444,14.2809778 L23.2576,14.2809778 L23.7704889,16.7405333 L21.5313778,16.7405333 Z M24.7491556,17.2560889 C24.7571556,17.2027556 24.7624889,17.1485333 24.7518222,17.0943111 L24.0540444,13.7467556 C24.0113778,13.5396444 23.8291556,13.3920889 23.6193778,13.3920889 L21.7669333,13.3920889 C21.5607111,13.3920889 21.3820444,13.5334222 21.3340444,13.7334222 L20.5358222,17.0818667 C20.5224889,17.1396444 20.5251556,17.1992 20.5340444,17.2569778 C18.9802667,18.0365333 17.9011556,19.6276444 17.9011556,21.4809778 C17.9011556,23.0845333 18.7233778,24.9947556 22.6424889,24.9947556 C26.5607111,24.9947556 27.3829333,23.0845333 27.3829333,21.4809778 C27.3829333,19.6276444 26.3038222,18.0356444 24.7491556,17.2560889 L24.7491556,17.2560889 Z" id="Fill-8"></path>
                </g>
            </g>
        </g>
    </g>
</svg>