<?xml version="1.0" encoding="UTF-8"?>
<svg width="25px" height="25px" viewBox="0 0 25 25" version="1.1" xmlns="http://www.w3.org/2000/svg" xmlns:xlink="http://www.w3.org/1999/xlink">
    <title>icon/shop/New 2</title>
    <g id="Page-1" stroke="none" stroke-width="1" fill="none" fill-rule="evenodd">
        <g id="Assets" transform="translate(-119.000000, -87.000000)">
            <g id="icon/shop/New-2" transform="translate(115.000000, 85.000000)">
                <g id="New-2" transform="translate(3.555556, 1.777778)">
                    <path d="M12.9709746,8.11269579 C12.9230285,8.0813638 12.8671094,8.06666667 12.8115615,8.06666667 C12.7560136,8.06666667 12.7000946,8.0813638 12.6521485,8.11269579 C12.6068737,8.14228219 12.5702942,8.18690813 12.5450817,8.24339711 L11.0040954,11.7027757 C10.7836935,12.1708541 10.3414098,12.4905498 9.81759819,12.5668254 L6.21232017,13.0380241 C6.14971502,13.0515017 6.09570398,13.0784585 6.05307218,13.1167241 C6.00345738,13.1612575 5.96940445,13.2194228 5.95056282,13.2821057 C5.93008139,13.3502439 5.92738301,13.4242538 5.94482591,13.4957821 C5.96091196,13.5617463 5.99459301,13.6250583 6.04569723,13.6804362 L8.69242585,16.2601731 C9.05081051,16.5735641 9.23059907,17.1010765 9.15113044,17.6501207 L8.46668946,21.4191296 C8.44927485,21.4820611 8.45091897,21.5426611 8.47017488,21.5959377 C8.49061466,21.6524897 8.52875408,21.7001352 8.57550564,21.7355327 C8.62244891,21.7710754 8.67891625,21.7949072 8.7391282,21.7992894 C8.79057469,21.8030337 8.84390991,21.7912108 8.89517013,21.7636591 L12.1113754,19.8691325 C12.5662242,19.6250849 13.1005384,19.6248283 13.5555544,19.8683625 L16.7451377,21.7264058 C16.8134941,21.7739219 16.9006783,21.7325557 17.079448,21.673816 C17.1019327,21.6452274 17.1200955,21.612352 17.1333373,21.5766794 C17.1590482,21.507416 17.1656111,21.4280142 17.1514744,21.3442552 L16.473112,17.6089795 C16.3976975,17.1512149 16.5408825,16.6130746 16.9106469,16.2324023 L19.5415181,13.6713369 C19.5985405,13.6162942 19.6348259,13.5541487 19.6526732,13.4887843 C19.6726166,13.4157427 19.6705665,13.3396952 19.6514682,13.2698048 C19.6274463,13.1818964 19.5198428,13.1383977 19.2895213,13.0111868 L14.7381521,11.9701995 L12.9709746,8.11269579 Z" id="Path" stroke="#FF5756" stroke-width="1.2"></path>
                    <g id="Blingbling" transform="translate(1.066667, 0.000000)" fill="#FF5756">
                        <g id="+" transform="translate(14.755556, 0.000000)" fill-rule="nonzero">
                            <g id="Group-4" transform="translate(0.018832, 0.880304)">
                                <path d="M4.7921557,3.42200395 C4.41425999,3.42200395 4.10756203,3.11539239 4.10756203,2.73760316 L4.10756203,0.684400789 C4.10756203,0.306611554 4.41425999,0 4.7921557,0 C5.1700514,0 5.47674937,0.306611554 5.47674937,0.684400789 L5.47674937,2.73760316 C5.47674937,3.11539239 5.1700514,3.42200395 4.7921557,3.42200395 Z" id="Shape"></path>
                                <path d="M4.7921557,9.58161105 C4.41425999,9.58161105 4.10756203,9.2749995 4.10756203,8.89721026 L4.10756203,6.84400789 C4.10756203,6.46621866 4.41425999,6.1596071 4.7921557,6.1596071 C5.1700514,6.1596071 5.47674937,6.46621866 5.47674937,6.84400789 L5.47674937,8.89721026 C5.47674937,9.2749995 5.1700514,9.58161105 4.7921557,9.58161105 Z" id="Shape"></path>
                                <path d="M2.73837468,5.47520631 L0.684593671,5.47520631 C0.306697965,5.47520631 0,5.16859476 0,4.79080552 C0,4.41301629 0.306697965,4.10640474 0.684593671,4.10640474 L2.73837468,4.10640474 C3.11627039,4.10640474 3.42296836,4.41301629 3.42296836,4.79080552 C3.42296836,5.16859476 3.11627039,5.47520631 2.73837468,5.47520631 Z" id="Shape"></path>
                                <path d="M8.89971772,5.47520631 L6.84593671,5.47520631 C6.468041,5.47520631 6.16134304,5.16859476 6.16134304,4.79080552 C6.16134304,4.41301629 6.468041,4.10640474 6.84593671,4.10640474 L8.89971772,4.10640474 C9.27761343,4.10640474 9.5843114,4.41301629 9.5843114,4.79080552 C9.5843114,5.16859476 9.27761343,5.47520631 8.89971772,5.47520631 Z" id="Shape"></path>
                            </g>
                            <path d="M4.81883161,6.21363713 C4.68016494,6.21363713 4.54149827,6.15460149 4.44016494,6.05799771 C4.34416494,5.95602706 4.28549827,5.81648828 4.28549827,5.6769495 C4.28549827,5.53741071 4.34416494,5.39787193 4.44016494,5.29590128 C4.64283161,5.09732685 4.99483161,5.09732685 5.19749827,5.29590128 C5.29349827,5.39787193 5.35216494,5.53741071 5.35216494,5.6769495 C5.35216494,5.81648828 5.29349827,5.95602706 5.19749827,6.05799771 C5.09616494,6.15460149 4.95749827,6.21363713 4.81883161,6.21363713 Z" id="Shape"></path>
                        </g>
                        <circle id="Oval" cx="2.66666667" cy="16.5333333" r="1"></circle>
                        <circle id="Oval-Copy" cx="18.6666667" cy="21.8666667" r="1"></circle>
                        <g id="x" transform="translate(0.000000, 4.266667)" fill-rule="nonzero">
                            <path d="M2.74285714,14.9333333 C2.99565714,14.9333333 3.2,15.1381333 3.2,15.3904762 C3.2,15.5865651 3.1793284,15.7779066 3.14004944,15.9624366 C3.32027355,16.5117645 3.75571041,16.9469916 4.30563533,17.127962 C4.48945205,17.0872636 4.68045618,17.0666667 4.87619048,17.0666667 C5.12899048,17.0666667 5.33333333,17.2714667 5.33333333,17.5238095 L5.32700236,17.5999152 C5.33116626,17.6247216 5.33333333,17.6502039 5.33333333,17.6761905 C5.33333333,17.9285333 5.12899048,18.1333333 4.87619048,18.1333333 C4.68010159,18.1333333 4.48876002,18.1126617 4.30423004,18.0733828 C3.75520667,18.2535216 3.32018824,18.68854 3.13902788,19.2379874 C3.1793284,19.4220934 3.2,19.6134349 3.2,19.8095238 C3.2,20.0618667 2.99565714,20.2666667 2.74285714,20.2666667 L2.66686508,20.2603226 C2.64202951,20.2644947 2.61650979,20.2666667 2.59047619,20.2666667 C2.33767619,20.2666667 2.13333333,20.0618667 2.13333333,19.8095238 C2.13333333,19.6137895 2.15393024,19.4227854 2.19307099,19.2385645 C2.01365825,18.6890437 1.5784312,18.2536069 1.02863662,18.0723471 C0.84457331,18.1126617 0.653231746,18.1333333 0.457142857,18.1333333 C0.204342857,18.1333333 0,17.9285333 0,17.6761905 L0.00633097828,17.6000848 C0.0021670749,17.5752784 0,17.5497961 0,17.5238095 C0,17.2714667 0.204342857,17.0666667 0.457142857,17.0666667 C0.652877155,17.0666667 0.843881281,17.0872636 1.02810216,17.1264043 C1.57792615,16.9469094 2.01357609,16.5112595 2.19464507,15.9609816 C2.15393024,15.7772146 2.13333333,15.5862105 2.13333333,15.3904762 C2.13333333,15.1381333 2.33767619,14.9333333 2.59047619,14.9333333 L2.66646825,14.9396774 C2.69130383,14.9355053 2.71682354,14.9333333 2.74285714,14.9333333 Z M2.66649435,17.0139709 L2.65152779,17.0345562 C2.48989856,17.2497629 2.29739172,17.4405117 2.0806376,17.6001723 C2.30433223,17.7646006 2.50220191,17.9624846 2.6669588,18.1861917 C2.83117136,17.9624304 3.02909703,17.7645047 3.25285841,17.5997079 C3.02915125,17.4355352 2.83126729,17.2376656 2.66649435,17.0139709 Z" id="Combined-Shape"></path>
                            <path d="M5.94285714,0 C6.19565714,0 6.4,0.2048 6.4,0.457142857 C6.4,0.653231746 6.3793284,0.84457331 6.34004944,1.02910329 C6.52027355,1.5784312 6.95571041,2.01365825 7.50563533,2.19462869 C7.68945205,2.15393024 7.88045618,2.13333333 8.07619048,2.13333333 C8.32899048,2.13333333 8.53333333,2.33813333 8.53333333,2.59047619 L8.52700236,2.66658189 C8.53116626,2.69138828 8.53333333,2.71687062 8.53333333,2.74285714 C8.53333333,2.9952 8.32899048,3.2 8.07619048,3.2 C7.88010159,3.2 7.68876002,3.1793284 7.50423004,3.14004944 C6.95520667,3.32018824 6.52018824,3.75520667 6.33902788,4.30465406 C6.3793284,4.48876002 6.4,4.68010159 6.4,4.87619048 C6.4,5.12853333 6.19565714,5.33333333 5.94285714,5.33333333 L5.86686508,5.32698931 C5.84202951,5.33116141 5.81650979,5.33333333 5.79047619,5.33333333 C5.53767619,5.33333333 5.33333333,5.12853333 5.33333333,4.87619048 C5.33333333,4.68045618 5.35393024,4.48945205 5.39307099,4.30523118 C5.21365825,3.75571041 4.7784312,3.32027355 4.22863662,3.13901381 C4.04457331,3.1793284 3.85323175,3.2 3.65714286,3.2 C3.40434286,3.2 3.2,2.9952 3.2,2.74285714 L3.20633098,2.66675144 C3.20216707,2.64194505 3.2,2.61646272 3.2,2.59047619 C3.2,2.33813333 3.40434286,2.13333333 3.65714286,2.13333333 C3.85287715,2.13333333 4.04388128,2.15393024 4.22810216,2.19307099 C4.77792615,2.01357609 5.21357609,1.57792615 5.39464507,1.02764822 C5.35393024,0.843881281 5.33333333,0.652877155 5.33333333,0.457142857 C5.33333333,0.2048 5.53767619,0 5.79047619,0 L5.86646825,0.00634402464 C5.89130383,0.00217192294 5.91682354,0 5.94285714,0 Z M5.86649435,2.0806376 L5.85152779,2.10122283 C5.68989856,2.31642959 5.49739172,2.50717841 5.2806376,2.66683898 C5.50433223,2.83126729 5.70220191,3.02915125 5.8669588,3.25285841 C6.03117136,3.02909703 6.22909703,2.83117136 6.45285841,2.66637453 C6.22915125,2.50220191 6.03126729,2.30433223 5.86649435,2.0806376 Z" id="Combined-Shape-Copy"></path>
                        </g>
                    </g>
                </g>
            </g>
        </g>
    </g>
</svg>