<?xml version="1.0" encoding="UTF-8"?>
<svg width="32px" height="32px" viewBox="0 0 32 32" version="1.1" xmlns="http://www.w3.org/2000/svg" xmlns:xlink="http://www.w3.org/1999/xlink">
    <title>icon/shop/Sale</title>
    <g id="Page-1" stroke="none" stroke-width="1" fill="none" fill-rule="evenodd">
        <g id="Assets" transform="translate(-787.000000, -85.000000)" fill="#CF142C">
            <g id="icon/shop/Sale" transform="translate(787.000000, 85.000000)">
                <g id="Sale" transform="translate(0.888889, 0.888889)">
                    <path d="M17.332973,-5.91865966e-16 C16.8779814,-5.91865966e-16 16.4491294,0.178075692 16.1240187,0.500735776 L16.1240187,0.500735776 L0.499918915,16.1248356 C0.172357665,16.4523968 0.0057180268,16.8796151 3.94541171e-16,17.3101008 L3.94541171e-16,17.3101008 L3.94541171e-16,17.3574788 C0.0057180268,17.7879645 0.172357665,18.2159997 0.499918915,18.5443778 L0.499918915,18.5443778 L11.6786613,29.7223033 C12.0119406,30.0555826 12.4505949,30.2222222 12.8884324,30.2222222 L12.8884324,30.2222222 C13.325453,30.2222222 13.7641074,30.0555826 14.0973866,29.7223033 L14.0973866,29.7223033 L29.7198527,14.0990204 C30.0392454,13.7812614 30.2222222,13.3401565 30.2222222,12.8892493 L30.2222222,12.8892493 L30.2222222,1.70969001 C30.2222222,0.767032452 29.4551898,-5.91865966e-16 28.5125322,-5.91865966e-16 L28.5125322,-5.91865966e-16 L17.332973,-5.91865966e-16 Z M12.2709335,29.0813176 L1.14794576,17.9560433 C0.802536599,17.609725 0.802536599,17.044722 1.14794576,16.6984036 L1.14794576,16.6984036 L16.6921708,1.14984709 C16.8620308,0.981565635 17.0855308,0.888888889 17.3220345,0.888888889 L17.3220345,0.888888889 L28.4450222,0.888888889 C28.9350969,0.888888889 29.3333333,1.28723631 29.3333333,1.77744752 L29.3333333,1.77744752 L29.3333333,12.9035348 C29.3333333,13.1384784 29.239057,13.3661055 29.0724478,13.5319481 L29.0724478,13.5319481 L13.5282228,29.0813176 C13.3599883,29.2495991 13.1299864,29.3333333 12.8991718,29.3333333 L12.8991718,29.3333333 C12.6691699,29.3333333 12.4391681,29.2495991 12.2709335,29.0813176 L12.2709335,29.0813176 Z" id="Fill-4"></path>
                    <path d="M21.9738138,5.74808408 C21.9738138,7.12667868 23.0955435,8.24840841 24.4741381,8.24840841 L24.4741381,8.24840841 C25.8518679,8.24840841 26.9735976,7.12667868 26.9735976,5.74808408 L26.9735976,5.74808408 C26.9735976,4.37035435 25.8518679,3.24862462 24.4741381,3.24862462 L24.4741381,3.24862462 C23.0955435,3.24862462 21.9738138,4.37035435 21.9738138,5.74808408 M22.8386787,5.74808408 C22.8386787,4.84689489 23.5720841,4.11262462 24.4741381,4.11262462 L24.4741381,4.11262462 C25.3761922,4.11262462 26.1095976,4.84689489 26.1095976,5.74808408 L26.1095976,5.74808408 C26.1095976,6.65013814 25.3761922,7.38354354 24.4741381,7.38354354 L24.4741381,7.38354354 C23.5720841,7.38354354 22.8386787,6.65013814 22.8386787,5.74808408" id="Fill-1"></path>
                    <path d="M18.4615976,11.4397598 L17.8164084,12.0849489 C17.2827868,11.6680841 16.6583544,11.4094895 16.0062462,11.3662462 L16.0062462,11.3662462 C15.1958679,11.3057057 14.4494895,11.5807327 13.9089489,12.1221381 L13.9089489,12.1221381 C12.7526246,13.2775976 13.3441922,14.8603003 14.0793273,16.2631111 L14.0793273,16.2631111 C14.9173814,17.7965165 15.015976,18.7582462 14.3967327,19.3766246 L14.3967327,19.3766246 C13.6321922,20.14203 12.2795435,20.0321922 11.3809489,19.1353273 L11.3809489,19.1353273 C11.3809489,19.1353273 11.3809489,19.1344625 11.3800841,19.1335976 L11.3800841,19.1335976 C11.3792192,19.1318679 11.3792192,19.1318679 11.3783544,19.1318679 L11.3783544,19.1318679 C10.791976,18.5454895 10.2972733,17.3303544 10.2263544,16.3011652 L10.2263544,16.3011652 C10.2090571,16.0624625 9.99284084,15.8791111 9.76451652,15.899003 L9.76451652,15.899003 C9.52667868,15.9163003 9.34678679,16.1221381 9.36321922,16.359976 L9.36321922,16.359976 C9.43673273,17.4298138 9.89078679,18.6397598 10.4849489,19.4164084 L10.4849489,19.4164084 L9.84235435,20.059003 C9.67370571,20.2276517 9.67370571,20.5009489 9.84235435,20.6695976 L9.84235435,20.6695976 C9.92711111,20.7543544 10.0378138,20.7967327 10.1485165,20.7967327 L10.1485165,20.7967327 C10.2592192,20.7967327 10.3699219,20.7543544 10.4546787,20.6695976 L10.4546787,20.6695976 L11.1024625,20.0218138 C11.7087327,20.4948949 12.4187868,20.7483003 13.1106787,20.7483003 L13.1106787,20.7483003 C13.8172733,20.7483003 14.4979219,20.4983544 15.0081922,19.9898138 L15.0081922,19.9898138 C16.2215976,18.7738138 15.4925165,17.0432192 14.8421381,15.85403 L14.8421381,15.85403 C13.9902462,14.2289489 13.9003003,13.3545706 14.5195435,12.7344625 L14.5195435,12.7344625 C14.8836517,12.3712192 15.3895976,12.2008408 15.9491652,12.2285165 L15.9491652,12.2285165 C16.5286246,12.2674354 17.0916517,12.5329489 17.5353273,12.9748949 L17.5353273,12.9748949 C17.5353273,12.9757598 17.5353273,12.9757598 17.5361922,12.9766246 L17.5361922,12.9766246 C17.5370571,12.9783544 17.5379219,12.9783544 17.5379219,12.9783544 L17.5379219,12.9783544 C18.1277598,13.5681922 18.3993273,14.3880841 18.2471111,15.1171652 L18.2471111,15.1171652 C18.1978138,15.3515435 18.3474354,15.5798679 18.5809489,15.6291652 L18.5809489,15.6291652 C18.8101381,15.6801922 19.0445165,15.5271111 19.0929489,15.2944625 L19.0929489,15.2944625 C19.2771652,14.4123003 19.0263544,13.4488408 18.4347868,12.6903544 L18.4347868,12.6903544 L19.0730571,12.0512192 C19.2425706,11.8817057 19.2425706,11.6092733 19.0730571,11.4397598 L19.0730571,11.4397598 C18.9891652,11.3558679 18.8784625,11.3134895 18.7677598,11.3134895 L18.7677598,11.3134895 C18.6570571,11.3134895 18.5463544,11.3558679 18.4615976,11.4397598" id="Fill-7"></path>
                </g>
            </g>
        </g>
    </g>
</svg>