<?xml version="1.0" encoding="UTF-8"?>
<svg width="25px" height="18px" viewBox="0 0 25 18" version="1.1" xmlns="http://www.w3.org/2000/svg" xmlns:xlink="http://www.w3.org/1999/xlink">
    <title>icon/shop/SC 2</title>
    <g id="Page-1" stroke="none" stroke-width="1" fill="none" fill-rule="evenodd">
        <g id="Assets" transform="translate(-735.000000, -92.000000)">
            <g id="icon/shop/SC-2" transform="translate(731.000000, 85.000000)">
                <g id="SC-2" transform="translate(4.444444, 7.111111)">
                    <path d="M19.0791111,17.1662222 C20.8355556,17.1662222 22.7306667,16.6577778 23.9093333,15.9182222 L23.4933333,15.0631111 C22.3608889,15.6408889 20.72,16.08 19.1946667,16.08 C15.2657778,16.08 12.7004444,13.1911111 12.7004444,8.82311111 C12.7004444,4.36266667 15.3582222,1.52 19.5644444,1.52 C20.9511111,1.52 22.2453333,1.79733333 23.3315556,2.32888889 L23.7475556,1.35822222 C22.5688889,0.757333333 21.0897778,0.433777778 19.5644444,0.433777778 C14.6417778,0.433777778 11.4293333,3.73866667 11.4293333,8.8 C11.4293333,13.792 14.5493333,17.1662222 19.0791111,17.1662222 Z" id="SC" fill="#CF142C" fill-rule="nonzero"></path>
                    <path d="M4.24177778,17.1662222 C7.29244444,17.1662222 9.44177778,15.2942222 9.44177778,12.5902222 C9.44177778,10.0248889 7.54666667,8.8 5.81333333,7.69066667 C4.40355556,6.76622222 3.10933333,5.93422222 3.10933333,4.50133333 C3.10933333,3.34577778 3.96444444,2.56 5.46666667,2.56 C6.25244444,2.56 7.31555556,2.79111111 8.14755556,3.184 L8.864,1.19644444 C7.75466667,0.664888889 6.64533333,0.410666667 5.44355556,0.410666667 C2.27733333,0.410666667 0.590222222,2.21333333 0.590222222,4.66311111 C0.590222222,7.20533333 2.416,8.40711111 4.08,9.49333333 C5.46666667,10.4177778 6.76088889,11.2497778 6.76088889,12.752 C6.76088889,14 5.90577778,14.9244444 4.17244444,14.9244444 C3.08622222,14.9244444 2,14.5546667 0.775111111,13.9306667 L0.0817777778,15.9182222 C1.168,16.6577778 2.64711111,17.1662222 4.24177778,17.1662222 Z" id="Path" stroke="#D00C25" fill-rule="nonzero"></path>
                </g>
            </g>
        </g>
    </g>
</svg>