<?xml version="1.0" encoding="UTF-8"?>
<svg width="27px" height="32px" viewBox="0 0 27 32" version="1.1" xmlns="http://www.w3.org/2000/svg" xmlns:xlink="http://www.w3.org/1999/xlink">
    <title>icon/shop/Skincare</title>
    <g id="Page-1" stroke="none" stroke-width="1" fill="none" fill-rule="evenodd">
        <g id="Assets" transform="translate(-285.000000, -85.000000)" fill="#7AC071">
            <g id="icon/shop/Skincare" transform="translate(283.000000, 85.000000)">
                <g id="Skincare" transform="translate(2.666667, 0.000000)">
                    <path d="M25.0755556,29.4739556 C25.072,30.3770667 24.3351111,31.1112889 23.4328889,31.1112889 L16.4764444,31.1112889 C16.0364444,31.1112889 15.6231111,30.9388444 15.3128889,30.6277333 C15.0026667,30.3166222 14.8328889,29.9024 14.8346528,29.4632889 L14.8533333,23.6508444 L25.0942222,23.6152889 L25.0755556,29.4739556 Z M13.968,22.7655111 L13.9457576,29.4597333 C13.9431111,30.1379556 14.2053333,30.7752889 14.6835556,31.2552889 C15.1617778,31.7352889 15.7982222,32.0001778 16.4764444,32.0001778 L23.4328889,32.0001778 C24.824,32.0001778 25.9591111,30.8686222 25.9644444,29.4766222 L25.9866667,22.7228444 L13.968,22.7655111 Z" id="Fill-1"></path>
                    <path d="M9.7648,29.4687111 C9.7648,30.3744889 9.02791111,31.1113778 8.12213333,31.1113778 L3.94791111,31.1113778 C3.04302222,31.1113778 2.30524444,30.3744889 2.30524444,29.4687111 L2.30524444,25.0429333 L9.7648,25.0429333 L9.7648,29.4687111 Z M11.1310222,0.889155556 L9.7888,24.1540444 L2.28124444,24.1540444 L0.939022222,0.889155556 L11.1310222,0.889155556 Z M0.000355555555,0.000266666667 L1.41635556,24.6082667 L1.41635556,29.4687111 C1.41635556,30.8642667 2.55235556,32.0002667 3.94791111,32.0002667 L8.12213333,32.0002667 C9.51857778,32.0002667 10.6536889,30.8642667 10.6536889,29.4687111 L10.6536889,24.6082667 L12.0705778,0.000266666667 L0.000355555555,0.000266666667 Z" id="Fill-4"></path>
                    <polygon id="Fill-7" points="17.1653333 26.4346667 22.7306667 26.4346667 22.7306667 25.5457778 17.1653333 25.5457778"></polygon>
                    <path d="M18.3072889,21.0147556 C20.8432889,21.0147556 22.4584,20.0289778 23.1615111,19.4796444 C23.5366222,19.9596444 24.1526222,20.8627556 24.3241778,21.8032 L25.2717333,21.6298667 C24.9704,19.9738667 23.6219556,18.5249778 23.5659556,18.4636444 L23.2157333,18.0947556 L22.8646222,18.4618667 C22.8495111,18.4778667 21.3090667,20.0512 18.3072889,20.0512 C15.9579556,20.0512 15.0628444,20.8983111 14.7250667,21.6094222 L15.5944,22.0227556 C15.7739556,21.6467556 16.3641778,21.0147556 18.3072889,21.0147556" id="Fill-9"></path>
                </g>
            </g>
        </g>
    </g>
</svg>