<?xml version="1.0" encoding="UTF-8"?>
<svg width="31px" height="32px" viewBox="0 0 31 32" version="1.1" xmlns="http://www.w3.org/2000/svg" xmlns:xlink="http://www.w3.org/1999/xlink">
    <title>icon/shop/Tools</title>
    <g id="Page-1" stroke="none" stroke-width="1" fill="none" fill-rule="evenodd">
        <g id="Assets" transform="translate(-395.000000, -85.000000)" fill="#FF585A">
            <g id="icon/shop/Tools" transform="translate(395.000000, 85.000000)">
                <g id="Tools" transform="translate(0.888889, 0.000000)">
                    <path d="M4.56444444,3.89333333 C4.44088889,3.976 4.36622222,4.11466667 4.36622222,4.26311111 L4.36622222,4.26311111 L4.36622222,11.0897778 C4.36622222,11.104 4.37333333,11.1155556 4.37422222,11.1297778 L4.37422222,11.1297778 C4.37688889,11.1591111 4.38222222,11.1866667 4.39111111,11.2151111 L4.39111111,11.2151111 C4.4,11.2444444 4.41066667,11.2702222 4.42488889,11.2968889 L4.42488889,11.2968889 C4.432,11.3093333 4.43288889,11.3244444 4.44088889,11.336 L4.44088889,11.336 C4.44977778,11.3484444 4.46222222,11.3555556 4.472,11.3671111 L4.472,11.3671111 C4.48177778,11.3795556 4.48622222,11.3937778 4.49688889,11.4035556 L4.49688889,11.4035556 L8.41511111,15.3226667 L8.46133333,17.8737778 L6.74933333,25.8551111 C6.42044444,25.472 5.96177778,25.1866667 5.39911111,25.0293333 L5.39911111,25.0293333 C3.90311111,24.6133333 1.76355556,25.16 0.572444444,27.0151111 L0.572444444,27.0151111 C-0.119111111,28.0933333 -0.186666667,29.2 0.383111111,30.1315556 L0.383111111,30.1315556 C1.05511111,31.2302222 2.59466667,31.9813333 4.08711111,31.9813333 L4.08711111,31.9813333 C4.22755556,31.9813333 4.36711111,31.9751111 4.50666667,31.9617778 L4.50666667,31.9617778 C7.048,31.712 7.40355556,27.1297778 7.40977778,26.9964444 L7.40977778,26.9964444 L8.92177778,19.9626667 L10.5235556,26.92 C10.5395556,27.1146667 10.9493333,31.6915556 13.4924444,31.9164444 L13.4924444,31.9164444 C13.6168889,31.928 13.7422222,31.9333333 13.8675556,31.9333333 L13.8675556,31.9333333 C15.3733333,31.9324444 16.9262222,31.1626667 17.5937778,30.0471111 L17.5937778,30.0471111 C18.1537778,29.1093333 18.0746667,28.0026667 17.3697778,26.9306667 L17.3697778,26.9306667 C16.1564444,25.0853333 14.0115556,24.5608889 12.5164444,24.9955556 L12.5164444,24.9955556 C11.9582222,25.1573333 11.5048889,25.4471111 11.1804444,25.832 L11.1804444,25.832 L9.35022222,17.8648889 L9.30577778,15.4151111 L13.3164444,11.4035556 C13.3297778,11.3911111 13.3351111,11.3733333 13.3466667,11.36 L13.3466667,11.36 C13.3546667,11.3502222 13.3653333,11.3466667 13.3724444,11.336 L13.3724444,11.336 C13.3804444,11.3244444 13.3813333,11.3093333 13.3884444,11.2968889 L13.3884444,11.2968889 C13.4035556,11.2702222 13.4133333,11.2444444 13.4222222,11.2151111 L13.4222222,11.2151111 C13.4311111,11.1866667 13.4364444,11.1591111 13.4391111,11.1297778 L13.4391111,11.1297778 C13.4408889,11.1155556 13.4471111,11.104 13.4471111,11.0897778 L13.4471111,11.0897778 L13.4471111,4.26311111 C13.4471111,4.11466667 13.3724444,3.976 13.2488889,3.89333333 L13.2488889,3.89333333 C11.8106667,2.93422222 10.3662222,2.61511111 9.07911111,2.61511111 L9.07911111,2.61511111 C6.52533333,2.61511111 4.59288889,3.87377778 4.56444444,3.89333333 L4.56444444,3.89333333 Z M5.25511111,4.512 C6.07911111,4.03644444 9.27822222,2.46666667 12.5582222,4.50577778 L12.5582222,4.50577778 L12.5582222,7.584 C9.50666667,5.96355556 6.55288889,6.99022222 5.25511111,7.61422222 L5.25511111,7.61422222 L5.25511111,4.512 Z M5.25511111,8.60888889 C6.07111111,8.13688889 9.27466667,6.56977778 12.5582222,8.61244444 L12.5582222,8.61244444 L12.5582222,10.3146667 C9.50666667,8.69422222 6.55288889,9.72088889 5.25511111,10.3448889 L5.25511111,10.3448889 L5.25511111,8.60888889 Z M5.53955556,11.1911111 C6.62844444,10.6417778 9.42044444,9.57866667 12.2826667,11.1813333 L12.2826667,11.1813333 L8.90666667,14.5573333 L5.53955556,11.1911111 Z M13.5715556,31.032 C12.3288889,30.9217778 11.7235556,28.8764444 11.4942222,27.5102222 L11.4942222,27.5102222 C11.5022222,27.48 11.5066667,27.448 11.5066667,27.4151111 L11.5066667,27.4151111 C11.5226667,26.3662222 12.3013333,25.984 12.7644444,25.8488889 L12.7644444,25.8488889 C13.9155556,25.5128889 15.6604444,25.9502222 16.6266667,27.4195556 L16.6266667,27.4195556 C17.1484444,28.2124444 17.2168889,28.9431111 16.8302222,29.5902222 L16.8302222,29.5902222 C16.3217778,30.4408889 15.0551111,31.0444444 13.8648889,31.0444444 L13.8648889,31.0444444 C13.7662222,31.0444444 13.6684444,31.0408889 13.5715556,31.032 L13.5715556,31.032 Z M1.14133333,29.6675556 C0.748444444,29.024 0.808888889,28.2933333 1.32088889,27.4951111 L1.32088889,27.4951111 C2.07822222,26.3155556 3.34044444,25.7884444 4.40533333,25.7884444 L4.40533333,25.7884444 C4.67288889,25.7884444 4.92888889,25.8204444 5.16088889,25.8853333 L5.16088889,25.8853333 C5.62755556,26.016 6.41333333,26.3911111 6.44177778,27.4408889 L6.44177778,27.4408889 C6.44266667,27.4737778 6.44711111,27.5057778 6.45422222,27.536 L6.45422222,27.536 C6.25155556,28.8675556 5.672,30.9537778 4.41955556,31.0764444 L4.41955556,31.0764444 C4.30933333,31.0871111 4.19822222,31.0924444 4.08711111,31.0924444 L4.08711111,31.0924444 C2.896,31.0924444 1.65422222,30.5048889 1.14133333,29.6675556 L1.14133333,29.6675556 Z" id="Fill-1"></path>
                    <path d="M24.2888889,0 C22.2044444,0 20.6124444,0.583111111 19.9217778,1.6 C19.5004444,2.22222222 19.4435556,2.96711111 19.7582222,3.76 L22.0008889,9.24533333 C22.0248889,9.304 22.072,9.344 22.1155556,9.38577778 L22.1155556,14.4382222 L22.1013333,14.4382222 L22.1013333,30.6106667 C22.1013333,31.3768889 22.6808889,32 23.392,32 L25.8151111,32 C26.5271111,32 27.1057778,31.3768889 27.1057778,30.6106667 L27.1057778,14.4382222 L27.1004444,9.17155556 L29.4595556,3.83555556 C29.5928889,3.50044444 29.6586667,3.17244444 29.6595556,2.85688889 C29.6577778,2.41688889 29.5315556,2.008 29.2817778,1.63911111 C28.5857778,0.612444444 26.9573333,0 24.9262222,0 L24.2888889,0 Z M20.5822222,3.42844444 C20.3768889,2.91111111 20.4017778,2.47644444 20.6577778,2.09955556 L20.6577778,2.09955556 C21.1635556,1.35288889 22.5555556,0.888888889 24.2888889,0.888888889 L24.2888889,0.888888889 L24.9262222,0.888888889 C26.6355556,0.888888889 28.0231111,1.36711111 28.5457778,2.13777778 L28.5457778,2.13777778 C28.8106667,2.528 28.84,2.98844444 28.64,3.49066667 L28.64,3.49066667 L26.3662222,8.632 L22.7111111,8.632 L20.5822222,3.42844444 Z M23.0044444,14.0933333 L26.2115556,14.0933333 L26.2115556,9.52177778 L23.0044444,9.52177778 L23.0044444,14.0933333 Z M22.9902222,14.9822222 L26.2168889,14.9822222 L26.2168889,30.6106667 C26.2168889,30.8817778 26.0328889,31.1111111 25.8151111,31.1111111 L23.392,31.1111111 C23.1742222,31.1111111 22.9902222,30.8817778 22.9902222,30.6106667 L22.9902222,14.9822222 Z" id="Fill-4"></path>
                </g>
            </g>
        </g>
    </g>
</svg>